<svg width="14" height="14" viewBox="0 0 14 14" fill="none" xmlns="http://www.w3.org/2000/svg">
<path d="M12.25 0H1.75C0.783502 0 0 0.783502 0 1.75V12.25C0 13.2165 0.783502 14 1.75 14H12.25C13.2165 14 14 13.2165 14 12.25V1.75C14 0.783502 13.2165 0 12.25 0ZM0.875 3.375C0.875 2.96079 1.26675 2.625 1.75 2.625H12.25C12.7332 2.625 13.125 2.96079 13.125 3.375V12.375C13.125 12.7892 12.7332 13.125 12.25 13.125H1.75C1.26675 13.125 0.875 12.7892 0.875 12.375V3.375Z" fill="#343A40"/>
<path d="M5.6875 6.125C6.17075 6.125 6.5625 5.73325 6.5625 5.25C6.5625 4.76675 6.17075 4.375 5.6875 4.375C5.20425 4.375 4.8125 4.76675 4.8125 5.25C4.8125 5.73325 5.20425 6.125 5.6875 6.125Z" fill="#343A40"/>
<path d="M8.3125 6.125C8.79575 6.125 9.1875 5.73325 9.1875 5.25C9.1875 4.76675 8.79575 4.375 8.3125 4.375C7.82925 4.375 7.4375 4.76675 7.4375 5.25C7.4375 5.73325 7.82925 6.125 8.3125 6.125Z" fill="#343A40"/>
<path d="M10.9375 6.125C11.4207 6.125 11.8125 5.73325 11.8125 5.25C11.8125 4.76675 11.4207 4.375 10.9375 4.375C10.4543 4.375 10.0625 4.76675 10.0625 5.25C10.0625 5.73325 10.4543 6.125 10.9375 6.125Z" fill="#343A40"/>
<path d="M3.0625 8.75C3.54575 8.75 3.9375 8.35825 3.9375 7.875C3.9375 7.39175 3.54575 7 3.0625 7C2.57925 7 2.1875 7.39175 2.1875 7.875C2.1875 8.35825 2.57925 8.75 3.0625 8.75Z" fill="#343A40"/>
<path d="M5.6875 8.75C6.17075 8.75 6.5625 8.35825 6.5625 7.875C6.5625 7.39175 6.17075 7 5.6875 7C5.20425 7 4.8125 7.39175 4.8125 7.875C4.8125 8.35825 5.20425 8.75 5.6875 8.75Z" fill="#343A40"/>
<path d="M8.3125 8.75C8.79575 8.75 9.1875 8.35825 9.1875 7.875C9.1875 7.39175 8.79575 7 8.3125 7C7.82925 7 7.4375 7.39175 7.4375 7.875C7.4375 8.35825 7.82925 8.75 8.3125 8.75Z" fill="#343A40"/>
<path d="M10.9375 8.75C11.4207 8.75 11.8125 8.35825 11.8125 7.875C11.8125 7.39175 11.4207 7 10.9375 7C10.4543 7 10.0625 7.39175 10.0625 7.875C10.0625 8.35825 10.4543 8.75 10.9375 8.75Z" fill="#343A40"/>
<path d="M3.0625 11.375C3.54575 11.375 3.9375 10.9832 3.9375 10.5C3.9375 10.0168 3.54575 9.625 3.0625 9.625C2.57925 9.625 2.1875 10.0168 2.1875 10.5C2.1875 10.9832 2.57925 11.375 3.0625 11.375Z" fill="#343A40"/>
<path d="M5.6875 11.375C6.17075 11.375 6.5625 10.9832 6.5625 10.5C6.5625 10.0168 6.17075 9.625 5.6875 9.625C5.20425 9.625 4.8125 10.0168 4.8125 10.5C4.8125 10.9832 5.20425 11.375 5.6875 11.375Z" fill="#343A40"/>
<path d="M8.3125 11.375C8.79575 11.375 9.1875 10.9832 9.1875 10.5C9.1875 10.0168 8.79575 9.625 8.3125 9.625C7.82925 9.625 7.4375 10.0168 7.4375 10.5C7.4375 10.9832 7.82925 11.375 8.3125 11.375Z" fill="#343A40"/>
</svg>
