<svg width="14" height="14" viewBox="0 0 14 14" fill="none" xmlns="http://www.w3.org/2000/svg">
<path d="M12.6974 0.382566C12.1873 -0.127522 11.3603 -0.127522 10.8502 0.382566L6.53999 4.69278L2.22979 0.382579C1.7197 -0.127509 0.892679 -0.12753 0.382567 0.382579C-0.127514 0.892667 -0.127531 1.7197 0.382567 2.22981L4.69276 6.54002L0.382582 10.8502C-0.127514 11.3603 -0.127499 12.1873 0.38258 12.6974C0.892691 13.2075 1.71971 13.2075 2.22981 12.6974L6.53998 8.38725L10.8502 12.6974C11.3603 13.2075 12.1873 13.2075 12.6974 12.6974C13.2075 12.1873 13.2075 11.3603 12.6974 10.8502L8.38721 6.54002L12.6974 2.22979C13.2075 1.71971 13.2075 0.892675 12.6974 0.382566Z" fill="#C4C4C4"/>
</svg>
