<svg width="9" height="11" viewBox="0 0 9 11" fill="none" xmlns="http://www.w3.org/2000/svg">
<path d="M7.96364 1.76037L7.96395 1.76064L7.97056 1.75173C8.14071 1.52241 8.12195 1.19721 7.914 0.989258C7.68535 0.760612 7.31465 0.760612 7.086 0.989258L3.02148 5.05377L3.0212 5.05349L3.01401 5.06182L2.97184 5.11066L2.97153 5.11039L2.96492 5.1193C2.79477 5.34862 2.81353 5.67382 3.02148 5.88177L7.086 9.94629L7.08572 9.94657L7.09405 9.95376L7.14289 9.99593L7.14262 9.99624L7.15153 10.0029C7.38085 10.173 7.70605 10.1542 7.914 9.94629L7.91428 9.94657L7.92148 9.93824L7.96364 9.8894L7.96395 9.88967L7.97056 9.88076C8.14071 9.65144 8.12195 9.32624 7.914 9.11829L4.26367 5.46777L7.914 1.81725L7.91429 1.81754L7.92148 1.80921L7.96364 1.76037Z" fill="#A4A4A4" stroke="#A4A4A4" stroke-width="0.3"/>
<rect width="1.5" height="10" rx="0.75" fill="#A4A4A4"/>
</svg>
