<svg width="16" height="8" viewBox="0 0 16 8" fill="none" xmlns="http://www.w3.org/2000/svg">
<path d="M15.9736 4.22278L15.9931 5.74393L10.1874 4.96227L6.72348 5.33526L3.36657 4.9493L0.0291225 5.34499L0.0258789 4.95903L3.36981 4.46603V2.78271L6.74942 3.60654L6.75591 4.92984L10.1615 4.47901L10.1517 2.78596L15.9736 4.22278Z" fill="#0561B8"/>
<path d="M10.1615 5.52686L15.9867 6.13013V7.62208H0.0162169L0 7.22639H3.35691C3.35691 7.22639 3.35691 6.11715 3.35691 5.5301C4.48561 5.64037 6.72354 5.86092 6.72354 5.86092V7.18747H10.1615V5.52686Z" fill="#0561B8"/>
<path d="M6.74948 3.12338L6.73975 2.71472C6.73975 2.71472 8.9485 2.05306 10.0902 1.71575C10.0902 1.16762 10.0902 0.638947 10.0902 0C12.0946 0.80436 14.0212 1.58277 15.9672 2.36443C15.9672 2.85094 15.9672 3.31799 15.9672 3.83693C13.9725 3.2888 12.02 2.75039 10.1226 2.22821C8.96796 2.53633 6.74948 3.12338 6.74948 3.12338Z" fill="#0561B8"/>
<path d="M3.37341 4.98397L0.0359584 5.37966L0.0327148 4.9937L3.37665 4.5007V2.81738L6.75626 3.6412L6.76275 4.96451L10.1683 4.51367L10.1586 2.82063L15.9805 4.25745L15.9999 5.7786L10.1943 4.99694L6.73031 5.36993L3.37341 4.98397Z" fill="#0561B8"/>
<path d="M10.1684 5.56104L15.9935 6.16431V7.65626H0.0230541L0.00683594 7.26057H3.36374C3.36374 7.26057 3.36374 6.15133 3.36374 5.56428C4.49244 5.67455 6.73038 5.8951 6.73038 5.8951V7.22165H10.1684V5.56104Z" fill="#0561B8"/>
<path d="M6.75631 3.15805L6.74658 2.74938C6.74658 2.74938 8.95533 2.08773 10.097 1.75042C10.097 1.20229 10.097 0.673616 10.097 0.034668C12.1014 0.839028 14.028 1.61744 15.974 2.3991C15.974 2.88561 15.974 3.35265 15.974 3.8716C13.9793 3.32346 12.0268 2.78506 10.1294 2.26288C8.97479 2.571 6.75631 3.15805 6.75631 3.15805H6.75631Z" fill="#0561B8"/>
</svg>
