<svg width="20" height="20" viewBox="0 0 20 20" fill="none" xmlns="http://www.w3.org/2000/svg">
<path d="M19.9517 10.4929L19.9761 12.3909L12.7311 11.4156L8.4086 11.8811L4.21944 11.3995L0.0546733 11.8933L0.0507812 11.4117L4.22359 10.7965V8.6958L8.44104 9.72383L8.44908 11.3751L12.6987 10.8126L12.6865 8.69969L19.9517 10.4929Z" fill="#222222" fill-opacity="0.59"/>
<path d="M12.6979 12.1196L19.967 12.8724V14.7341H0.0378169L0.0175781 14.2403H4.20674C4.20674 14.2403 4.20674 12.856 4.20674 12.1235C5.61515 12.261 8.40783 12.5363 8.40783 12.5363V14.1918H12.6979V12.1196Z" fill="#222222"/>
<path d="M8.43993 9.12066L8.42773 8.6108C8.42773 8.6108 11.1841 7.78516 12.6086 7.3643C12.6086 6.68033 12.6086 6.0205 12.6086 5.22314C15.1099 6.22678 17.5139 7.19824 19.9425 8.17359C19.9425 8.78075 19.9425 9.36352 19.9425 10.0112C17.4534 9.3272 15.017 8.65517 12.6491 8.00364C11.2082 8.38791 8.43993 9.12066 8.43993 9.12066Z" fill="#222222" fill-opacity="0.29"/>
<path d="M4.22762 11.4439L0.0627164 11.9361L0.0566406 11.4561L4.23066 10.8394V8.74023L8.44721 9.76703L8.45632 11.4196L12.7063 10.8546L12.6941 8.74327L19.9577 10.5356L19.982 12.4343L12.7397 11.4591L8.41683 11.9239L4.22762 11.4439Z" fill="#222222" fill-opacity="0.59"/>
<path d="M12.7074 12.1636L19.977 12.917V14.7792H0.0486088L0.0273438 14.284H4.21655C4.21655 14.284 4.21655 12.8987 4.21655 12.1666C5.62308 12.3033 8.41791 12.5798 8.41791 12.5798V14.2354H12.7074V12.1636Z" fill="#222222"/>
<path d="M8.4477 9.16222L8.43555 8.65186C8.43555 8.65186 11.1909 7.82556 12.6156 7.40634C12.6156 6.72282 12.6156 6.0636 12.6156 5.26465C15.1158 6.26714 17.5218 7.23926 19.949 8.21441C19.949 8.82198 19.949 9.40525 19.949 10.0523C17.461 9.36879 15.0247 8.69743 12.6551 8.04429C11.2182 8.43009 8.4477 9.16222 8.4477 9.16222Z" fill="#222222" fill-opacity="0.29"/>
</svg>
