<svg width="24" height="19" viewBox="0 0 24 19" fill="none" xmlns="http://www.w3.org/2000/svg">
<path d="M0 1.5C0 0.671573 0.447715 0 1 0H23C23.5523 0 24 0.671573 24 1.5C24 2.32843 23.5523 3 23 3H1C0.447715 3 0 2.32843 0 1.5Z" fill="#BE8E5E"/>
<path d="M0 9.5C0 8.67157 0.447715 8 1 8H23C23.5523 8 24 8.67157 24 9.5C24 10.3284 23.5523 11 23 11H1C0.447715 11 0 10.3284 0 9.5Z" fill="#BE8E5E"/>
<path d="M0 17.5C0 16.6716 0.447715 16 1 16H23C23.5523 16 24 16.6716 24 17.5C24 18.3284 23.5523 19 23 19H1C0.447715 19 0 18.3284 0 17.5Z" fill="#BE8E5E"/>
</svg>
