<svg width="16" height="16" viewBox="0 0 16 16" fill="none" xmlns="http://www.w3.org/2000/svg">
<circle cx="8" cy="8" r="7.5" stroke="#222222"/>
<path d="M7.00037 6.07224C7.00037 5.481 7.51306 5 8.14325 5C8.77344 5 9.28613 5.481 9.28613 6.07224C9.28613 6.66347 8.77344 7.14447 8.14325 7.14447C7.51306 7.14447 7.00037 6.66347 7.00037 6.07224ZM9.15384 11.5246L8.95955 7.87896C8.95043 7.70777 8.79982 7.57336 8.61712 7.57336H7.66938C7.48668 7.57336 7.33607 7.70777 7.32695 7.87896L7.13265 11.5246C7.12287 11.7083 7.279 11.8623 7.47509 11.8623H8.81141C9.0075 11.8623 9.16363 11.7083 9.15384 11.5246Z" fill="#222222"/>
</svg>
