<svg width="12" height="12" viewBox="0 0 12 12" fill="none" xmlns="http://www.w3.org/2000/svg">
<path d="M8.25 10.5V11.4375C8.25 11.7482 7.99816 12 7.6875 12H1.3125C1.00184 12 0.75 11.7482 0.75 11.4375V2.8125C0.75 2.50184 1.00184 2.25 1.3125 2.25H3V9.1875C3 9.91123 3.58877 10.5 4.3125 10.5H8.25ZM8.25 2.4375V0H4.3125C4.00184 0 3.75 0.251836 3.75 0.5625V9.1875C3.75 9.49816 4.00184 9.75 4.3125 9.75H10.6875C10.9982 9.75 11.25 9.49816 11.25 9.1875V3H8.8125C8.50313 3 8.25 2.74687 8.25 2.4375ZM11.0853 1.71026L9.53974 0.164742C9.43425 0.05926 9.29119 7.79991e-07 9.14201 0L9 0V2.25H11.25V2.10799C11.25 1.95881 11.1907 1.81575 11.0853 1.71026V1.71026Z" fill="#0561B8"/>
</svg>
