<svg width="10" height="11" viewBox="0 0 10 11" fill="none" xmlns="http://www.w3.org/2000/svg">
<path d="M0.971843 9.2074L0.971533 9.20714L0.964923 9.21604C0.794774 9.44536 0.813531 9.77056 1.02148 9.97851C1.25013 10.2072 1.62084 10.2072 1.84948 9.97851L5.914 5.914L5.91428 5.91428L5.92148 5.90595L5.96364 5.85711L5.96395 5.85738L5.97056 5.84847C6.14071 5.61915 6.12195 5.29395 5.914 5.086L1.84948 1.02148L1.84977 1.0212L1.84144 1.01401L1.7926 0.971842L1.79286 0.971532L1.78396 0.964923C1.55464 0.794774 1.22944 0.81353 1.02148 1.02148L1.0212 1.0212L1.01401 1.02953L0.971842 1.07837L0.971532 1.0781L0.964923 1.08701C0.794775 1.31633 0.81353 1.64153 1.02148 1.84948C1.02148 1.84948 1.02148 1.84948 1.02148 1.84948L4.67181 5.5L1.02148 9.15052L1.0212 9.15023L1.01401 9.15856L0.971843 9.2074Z" fill="#A4A4A4" stroke="#A4A4A4" stroke-width="0.3"/>
<rect x="8" width="1.5" height="10" rx="0.75" fill="#A4A4A4"/>
</svg>
