<svg width="191" height="45" viewBox="0 0 191 45" fill="none" xmlns="http://www.w3.org/2000/svg">
<path d="M69.8628 8.87894H74.0128V35.6313H69.8628V32.8796C68.3001 35.0453 66.0586 36.1281 63.1383 36.1281C60.4997 36.1281 58.2454 35.1599 56.3753 33.2236C54.5053 31.2617 53.5702 28.8795 53.5702 26.0769C53.5702 23.2488 54.5053 20.8665 56.3753 18.9302C58.2454 16.9938 60.4997 16.0256 63.1383 16.0256C66.0586 16.0256 68.3001 17.0957 69.8628 19.2359V8.87894ZM59.4494 30.4719C60.6022 31.6184 62.0495 32.1917 63.7915 32.1917C65.5335 32.1917 66.9808 31.6184 68.1336 30.4719C69.2864 29.2999 69.8628 27.8349 69.8628 26.0769C69.8628 24.3188 69.2864 22.8666 68.1336 21.7201C66.9808 20.548 65.5335 19.962 63.7915 19.962C62.0495 19.962 60.6022 20.548 59.4494 21.7201C58.2966 22.8666 57.7202 24.3188 57.7202 26.0769C57.7202 27.8349 58.2966 29.2999 59.4494 30.4719Z" fill="#222222"/>
<path d="M91.8379 16.0256C94.4764 16.0256 96.7307 16.9938 98.6008 18.9302C100.471 20.8665 101.406 23.2488 101.406 26.0769C101.406 28.8795 100.471 31.2617 98.6008 33.2236C96.7307 35.1599 94.4764 36.1281 91.8379 36.1281C88.9175 36.1281 86.676 35.0453 85.1133 32.8796V35.6313H80.9633V8.87894H85.1133V19.2359C86.676 17.0957 88.9175 16.0256 91.8379 16.0256ZM86.8425 30.4719C87.9953 31.6184 89.4426 32.1917 91.1846 32.1917C92.9266 32.1917 94.374 31.6184 95.5267 30.4719C96.6795 29.2999 97.2559 27.8349 97.2559 26.0769C97.2559 24.3188 96.6795 22.8666 95.5267 21.7201C94.374 20.548 92.9266 19.962 91.1846 19.962C89.4426 19.962 87.9953 20.548 86.8425 21.7201C85.6897 22.8666 85.1133 24.3188 85.1133 26.0769C85.1133 27.8349 85.6897 29.2999 86.8425 30.4719Z" fill="#222222"/>
<path d="M117.656 18.3951H111.93V30.8158C111.93 31.9114 112.135 32.7012 112.545 33.1853C112.955 33.6694 113.582 33.9497 114.428 34.0261C115.273 34.0771 116.349 34.0389 117.656 33.9115V35.6313C115.068 36.0134 113.134 35.8351 111.853 35.0962C110.598 34.3573 109.97 32.9305 109.97 30.8158V18.3951H105.744V16.5225H109.97V11.7453L111.93 11.172V16.5225H117.656V18.3951Z" fill="#222222"/>
<path d="M138.212 16.5225H140.134V35.6313H138.212V32.0006C136.829 34.7013 134.536 36.0517 131.334 36.0517C129.054 36.0517 127.235 35.3637 125.878 33.9879C124.546 32.5866 123.88 30.7267 123.88 28.4081V16.5225H125.839V28.4081C125.839 30.1916 126.326 31.6057 127.3 32.6503C128.299 33.6949 129.695 34.2172 131.488 34.2172C133.46 34.2172 135.074 33.5675 136.33 32.2681C137.585 30.9687 138.212 29.0833 138.212 26.6119V16.5225Z" fill="#222222"/>
<path d="M156.982 16.1021C159.262 16.1021 161.068 16.8027 162.4 18.204C163.757 19.5799 164.436 21.4271 164.436 23.7456V35.6313H162.477V23.7456C162.477 21.9621 161.977 20.548 160.978 19.5034C160.004 18.4588 158.621 17.9365 156.828 17.9365C154.855 17.9365 153.242 18.5862 151.986 19.8856C150.731 21.185 150.103 23.0704 150.103 25.5418V35.6313H148.182V16.5225H150.103V20.1531C151.487 17.4524 153.78 16.1021 156.982 16.1021Z" fill="#222222"/>
<path d="M180.631 16.1021C183.449 16.1021 185.729 17.0957 187.471 19.083C189.238 21.0704 190.122 23.4271 190.122 26.1533C190.122 26.2552 190.109 26.4081 190.084 26.6119C190.084 26.8157 190.084 26.9686 190.084 27.0705H172.677C172.907 29.2107 173.766 30.9432 175.251 32.2681C176.763 33.5675 178.62 34.2172 180.823 34.2172C182.36 34.2172 183.705 33.8987 184.858 33.2618C186.011 32.6248 186.882 31.784 187.471 30.7394L189.162 31.7331C188.367 33.0579 187.24 34.1153 185.78 34.9051C184.32 35.6695 182.655 36.0517 180.785 36.0517C177.839 36.0517 175.418 35.1217 173.522 33.2618C171.627 31.3764 170.679 28.9814 170.679 26.0769C170.679 23.2233 171.601 20.8538 173.445 18.9684C175.315 17.0575 177.711 16.1021 180.631 16.1021ZM180.631 17.9365C178.454 17.9365 176.635 18.6117 175.174 19.962C173.714 21.3124 172.882 23.0577 172.677 25.1979H188.124C187.919 22.9303 187.099 21.1595 185.665 19.8856C184.256 18.5862 182.578 17.9365 180.631 17.9365Z" fill="#222222"/>
<mask id="mask0_1_113" style="mask-type:alpha" maskUnits="userSpaceOnUse" x="0" y="0" width="43" height="45">
<path d="M30.5506 9.43683C30.3343 9.5009 30.0984 9.54362 29.7838 9.62906C29.6855 9.1378 29.5479 8.68926 29.4889 8.21936C29.3513 7.21549 28.9974 6.44657 28.1127 5.93395C27.287 5.44269 27.0904 4.20387 27.5426 3.34951C28.0734 2.367 29.1154 2.02526 30.0394 2.53787C30.8455 2.98641 31.3959 4.24659 30.8455 5.01551C29.9018 6.36113 30.236 7.66403 30.5309 9.05236C30.5506 9.1378 30.5506 9.24459 30.5506 9.33003C30.6095 9.35139 30.5899 9.37275 30.5506 9.43683Z" fill="#979797"/>
<path d="M18.2827 12.2989C18.0074 12.363 17.7912 12.4271 17.4963 12.4911C17.398 11.9785 17.2603 11.5086 17.1817 10.996C17.0441 10.0562 16.6902 9.33 15.8645 8.83875C15.0388 8.32613 14.8029 7.21547 15.1961 6.33975C15.5893 5.46403 16.5919 4.99413 17.4176 5.29316C18.2827 5.61354 18.7938 6.55334 18.6365 7.55721C18.5972 7.79216 18.5186 8.04847 18.381 8.21934C17.7912 9.00962 17.7125 9.88534 17.9878 10.8465C18.145 11.295 18.1844 11.7436 18.2827 12.2989Z" fill="#979797"/>
<path d="M28.9582 26.2677C28.9582 25.5629 29.1745 25.3279 29.7446 25.5629C30.0788 25.7124 30.4327 25.7765 30.7669 25.9046C31.455 26.2036 32.1038 26.1609 32.7526 25.7124C33.4603 25.2425 34.286 25.3706 34.8758 25.926C35.4459 26.4813 35.6425 27.3143 35.3673 28.1259C35.1117 28.8949 34.6006 29.322 33.8535 29.4075C33.1064 29.4929 32.3987 29.2153 32.1038 28.4463C31.6909 27.3357 30.9045 26.8658 29.9412 26.5881C29.607 26.524 29.2728 26.3745 28.9582 26.2677Z" fill="#979797"/>
<path d="M32.7525 13.3028C32.8508 12.961 32.9294 12.7475 33.0277 12.3843C33.4995 12.5552 33.9714 12.7047 34.4236 12.8756C35.2099 13.1746 35.9177 13.2174 36.6844 12.7047C37.5888 12.1067 38.6897 12.5339 39.1812 13.5164C39.6531 14.4775 39.3188 15.7163 38.4342 16.2503C37.5298 16.7843 36.3502 16.4639 35.9374 15.4387C35.5442 14.4348 34.8757 13.9863 33.9714 13.73C33.5978 13.6232 33.2046 13.4737 32.7525 13.3028Z" fill="#979797"/>
<path d="M24.4559 26.6949C24.6721 26.9726 24.8097 27.1434 24.9867 27.3784C24.5148 27.8483 24.0823 28.2755 23.6301 28.724C23.1386 29.1939 22.9027 29.7492 22.9027 30.4754C22.9027 31.757 22.1163 32.59 21.0154 32.5472C20.0717 32.5259 19.246 31.5861 19.2853 30.5822C19.3246 29.3434 20.17 28.5531 21.3693 28.6599C22.077 28.724 22.6472 28.5104 23.1386 27.9764C23.5515 27.5492 23.984 27.1434 24.4559 26.6949Z" fill="#979797"/>
<path d="M16.0811 16.6561C16.2384 16.8484 16.376 17.0192 16.5726 17.2542C16.1794 17.66 15.8059 18.0445 15.4127 18.4076C14.8032 18.9415 14.4886 19.6037 14.469 20.4794C14.4493 21.6755 13.5843 22.5085 12.6013 22.4231C11.5004 22.3163 10.7926 21.4192 10.8909 20.2444C10.9499 19.3901 11.6773 18.4503 12.4833 18.5784C13.8792 18.7707 14.7246 17.9804 15.5896 17.062C15.6879 16.9552 15.7862 16.8697 15.8845 16.7629C15.9238 16.6989 15.9631 16.6989 16.0811 16.6561Z" fill="#979797"/>
<path d="M18.1847 23.8328C18.3813 24.0464 18.5189 24.2172 18.7351 24.4308C18.3223 24.858 17.9291 25.2638 17.5162 25.6483C16.9461 26.1609 16.6708 26.7803 16.6708 27.592C16.6512 28.7454 15.8451 29.6211 14.8818 29.557C13.8988 29.4929 13.1124 28.6386 13.1321 27.656C13.1714 26.4599 13.9578 25.6483 15.1177 25.7551C15.8845 25.8192 16.4939 25.5842 17.0444 24.9862C17.3589 24.5804 17.7521 24.2386 18.1847 23.8328Z" fill="#979797"/>
<path d="M30.0984 13.9222C29.1547 13.5805 28.6239 12.4271 28.9188 11.3805C29.2333 10.3339 30.3539 9.73585 31.2976 10.099C32.2413 10.4621 32.7524 11.6368 32.4379 12.662C32.1233 13.6873 31.0617 14.264 30.0984 13.9222Z" fill="#979797"/>
<path d="M32.7526 17.8309C33.7356 18.1727 34.2467 19.2833 33.9322 20.3513C33.6176 21.4192 32.5953 21.9746 31.6123 21.6328C30.649 21.2911 30.0985 20.159 30.4131 19.1125C30.7473 18.0659 31.7893 17.4892 32.7526 17.8309Z" fill="#979797"/>
<path d="M41.6554 0.0984757C42.6384 0.44022 43.1496 1.55089 42.835 2.61884C42.5205 3.68678 41.4982 4.24212 40.5152 3.90037C39.5518 3.55863 39.0014 2.42661 39.3159 1.38002C39.6502 0.333425 40.6921 -0.243268 41.6554 0.0984757Z" fill="#979797"/>
<path d="M21.9985 8.90287C22.313 7.85628 23.355 7.27958 24.3183 7.62133C25.2817 7.96307 25.7928 9.0951 25.4783 10.163C25.1637 11.231 24.1217 11.7863 23.1584 11.4446C22.1951 11.0815 21.6839 9.94946 21.9985 8.90287Z" fill="#979797"/>
<path d="M26.2451 26.9085C25.2621 26.5667 24.7313 25.456 25.0262 24.4095C25.3407 23.3842 26.422 22.7862 27.3657 23.1279C28.2897 23.4697 28.8205 24.5803 28.5453 25.5842C28.2504 26.6521 27.2281 27.2288 26.2451 26.9085Z" fill="#979797"/>
<path d="M18.9119 13.0251C19.8949 13.3669 20.4061 14.3921 20.1112 15.4387C19.7966 16.5493 18.8333 17.1047 17.8503 16.7629C16.8673 16.4212 16.3561 15.396 16.651 14.3494C16.9459 13.2601 17.9093 12.6834 18.9119 13.0251Z" fill="#979797"/>
<path d="M9.6127 13.9009C9.76997 14.0931 9.90759 14.264 10.1042 14.4989C9.71099 14.9047 9.33746 15.2892 8.94426 15.6523C8.33481 16.1863 8.02025 16.8484 8.00059 17.7241C7.98093 18.9202 7.1159 19.7532 6.13291 19.6678C5.03196 19.561 4.32421 18.6639 4.42251 17.4892C4.48148 16.6348 5.2089 15.695 6.01495 15.8232C7.4108 16.0154 8.25617 15.2251 9.1212 14.3067C9.2195 14.1999 9.3178 14.1145 9.4161 14.0077C9.43576 13.9649 9.49474 13.9436 9.6127 13.9009Z" fill="#979797"/>
<path d="M12.1292 10.5688C13.1122 10.9106 13.6234 11.9358 13.3285 12.9824C13.0139 14.0931 12.0506 14.6484 11.0676 14.3067C10.0846 13.9649 9.57347 12.9397 9.86836 11.8931C10.1436 10.8038 11.1266 10.2271 12.1292 10.5688Z" fill="#979797"/>
<path d="M26.7564 34.619C26.9137 34.8113 27.0513 34.9821 27.2479 35.2171C26.8547 35.6229 26.4811 36.0074 26.0879 36.3705C25.4785 36.9044 25.1639 37.5666 25.1443 38.4423C25.1246 39.6384 24.2596 40.4714 23.2766 40.386C22.1756 40.2792 21.4679 39.3821 21.5662 38.2073C21.6252 37.353 22.3526 36.4132 23.1586 36.5413C24.5545 36.7336 25.3998 35.9433 26.2649 35.0248C26.3632 34.9181 26.4615 34.8326 26.5598 34.7258C26.5794 34.6618 26.6384 34.6618 26.7564 34.619Z" fill="#979797"/>
<path d="M29.2727 31.2871C30.2556 31.6288 30.7668 32.6541 30.4719 33.7007C30.1573 34.8113 29.194 35.3667 28.211 35.0249C27.228 34.6832 26.7169 33.6579 27.0118 32.6114C27.3067 31.5007 28.27 30.9453 29.2727 31.2871Z" fill="#979797"/>
<path d="M27.8127 41.1164C28.8154 41.33 29.4445 42.2912 29.2675 43.3591C29.0906 44.4912 28.1863 45.1747 27.1639 44.9611C26.1613 44.7475 25.5322 43.7863 25.7091 42.7184C25.8664 41.6077 26.7904 40.9029 27.8127 41.1164Z" fill="#979797"/>
<path d="M17.3508 32.8184C18.3534 33.032 18.9825 33.9931 18.8056 35.0611C18.6287 36.1931 17.7243 36.8766 16.702 36.663C15.6993 36.4494 15.0702 35.4883 15.2472 34.4203C15.4044 33.3096 16.3285 32.6048 17.3508 32.8184Z" fill="#979797"/>
<path d="M19.253 41.1164C20.2556 41.33 20.8847 42.2912 20.7078 43.3591C20.5309 44.4912 19.6265 45.1747 18.6042 44.9611C17.6016 44.7475 16.9724 43.7863 17.1494 42.7184C17.3067 41.6077 18.2307 40.9029 19.253 41.1164Z" fill="#979797"/>
<path d="M8.79094 22.4458C9.79359 22.6594 10.4227 23.6206 10.2458 24.6885C10.0688 25.8205 9.16447 26.504 8.14216 26.2904C7.13951 26.0768 6.51039 25.1157 6.68733 24.0477C6.84461 22.9371 7.76862 22.2322 8.79094 22.4458Z" fill="#979797"/>
<path d="M2.13333 20.8899C3.13598 21.1035 3.7651 22.0647 3.58816 23.1326C3.41122 24.2647 2.50687 24.9481 1.48456 24.7346C0.481907 24.521 -0.14721 23.5598 0.0297288 22.4919C0.187007 21.3812 1.11102 20.6763 2.13333 20.8899Z" fill="#979797"/>
<path d="M2.60893 11.0368C3.61158 11.2504 4.24069 12.2116 4.06376 13.2795C3.88682 14.4116 2.98247 15.095 1.96016 14.8815C0.957505 14.6679 0.328391 13.7067 0.505329 12.6388C0.682268 11.5067 1.58662 10.8232 2.60893 11.0368Z" fill="#979797"/>
<path d="M19.7378 24.1959C18.7744 23.8541 18.2436 22.7862 18.5385 21.761C18.8334 20.7144 19.8754 20.1377 20.8584 20.5008C21.8217 20.8425 22.3132 21.9105 21.9986 22.9571C21.6841 24.0036 20.7011 24.5376 19.7378 24.1959Z" fill="#979797"/>
<path d="M38.1196 3.8835C38.3162 4.09709 38.4538 4.26796 38.6701 4.48155C38.2572 4.90873 37.864 5.31455 37.4511 5.69901C36.881 6.21163 36.6058 6.83104 36.6058 7.64268C36.5861 8.79607 35.7801 9.67179 34.8167 9.60771C33.8337 9.54363 33.0474 8.68927 33.067 7.70676C33.1063 6.51066 33.8927 5.69901 35.0527 5.80581C35.8194 5.86989 36.4288 5.63494 36.9793 5.03688C37.2939 4.63106 37.6871 4.28932 38.1196 3.8835Z" fill="#979797"/>
<path d="M29.1746 14.0717L28.6242 13.4096L26.9138 15.097C26.8155 15.161 26.6189 15.3105 26.4026 15.2251C26.265 15.1824 26.0684 15.1183 25.8718 15.0756C25.7735 15.0329 25.6555 15.0115 25.5376 14.9902C25.164 14.9474 24.8102 15.0115 24.4956 15.161C24.4759 15.161 24.4366 15.1824 24.417 15.2038C24.24 15.3106 24.1024 15.4173 23.9648 15.5669C23.8272 15.695 23.6896 15.8232 23.6109 15.9086C23.3947 16.1436 23.0408 16.0154 23.0408 16.0154L20.8192 15.2465L20.5636 16.1008L23.0211 16.9552C23.0998 17.0193 23.1981 17.0833 23.2374 17.2115C23.3553 17.5105 23.6109 18.1299 23.7682 18.3008C23.8075 18.3649 23.8665 18.429 23.9255 18.493C24.0238 18.5998 24.1221 18.7066 24.24 18.7921C24.3973 18.8989 24.5546 18.9843 24.7315 19.0484C24.8102 19.0911 24.8888 19.1125 24.9478 19.1552C25.164 19.2406 25.2427 19.4756 25.2623 19.6037C25.282 19.6464 25.282 19.6678 25.282 19.6678L25.8915 22.5726L26.6975 22.3804L26.0684 19.3901C26.0684 19.262 26.0881 19.1125 26.206 18.9843C26.2257 18.9629 26.2453 18.9416 26.265 18.8989C26.7172 18.6212 27.0514 18.1727 27.189 17.6173C27.2087 17.5319 27.2283 17.4678 27.2283 17.3824C27.2873 17.1261 27.2676 16.4853 27.248 16.1863C27.248 16.0795 27.2676 15.9727 27.307 15.8872L29.1746 14.0717Z" fill="#979797"/>
</mask>
<g mask="url(#mask0_1_113)">
<path d="M45.3037 -1.33554H-1.54034V46.4133H45.3037V-1.33554Z" fill="url(#paint0_linear_1_113)"/>
</g>
<defs>
<linearGradient id="paint0_linear_1_113" x1="3.71809" y1="42.2682" x2="45.0234" y2="2.11225" gradientUnits="userSpaceOnUse">
<stop stop-color="#3AD0C1"/>
<stop offset="1" stop-color="#0561B8"/>
</linearGradient>
</defs>
</svg>
