<svg width="16" height="16" viewBox="0 0 16 16" fill="none" xmlns="http://www.w3.org/2000/svg">
<path fill-rule="evenodd" clip-rule="evenodd" d="M14.7352 12.0748C13.865 12.0505 13.1899 12.1397 12.6241 12.3778C12.4611 12.4432 12.1997 12.4432 12.1782 12.6483C12.2653 12.7343 12.2758 12.8751 12.3521 12.9944C12.4826 13.2108 12.7114 13.5024 12.9179 13.6537L13.6143 14.1513C14.0386 14.4106 14.5174 14.5621 14.9308 14.8217C15.1703 14.9732 15.4096 15.1678 15.6491 15.3302C15.771 15.4167 15.8449 15.5576 15.9973 15.6114V15.5786C15.9212 15.4817 15.8993 15.3411 15.8234 15.2325L15.4966 14.9191C15.1813 14.4974 14.7893 14.1295 14.365 13.827C14.0167 13.5889 13.2552 13.2646 13.1138 12.8647L13.0923 12.8405C13.3313 12.8162 13.6143 12.7321 13.843 12.6672C14.2133 12.5702 14.5503 12.5915 14.9308 12.4943L15.4535 12.3429V12.2459C15.2576 12.0513 15.1162 11.7917 14.9096 11.608C14.3547 11.1322 13.745 10.667 13.1138 10.2778C12.7765 10.0616 12.3411 9.92074 11.9821 9.73726C11.8512 9.6723 11.6338 9.63982 11.5578 9.53172C11.3614 9.29419 11.2529 8.9803 11.1114 8.6989L10.2193 6.81729C10.0234 6.39555 9.90343 5.97381 9.66441 5.58454C8.54348 3.74608 7.3245 2.63234 5.45286 1.53993C5.05044 1.31282 4.57168 1.21514 4.06267 1.09637L3.2466 1.05274C3.07222 0.977118 2.89833 0.771579 2.74589 0.674142C2.12567 0.284877 0.525979 -0.558609 0.0686792 0.552951C-0.225212 1.25586 0.504027 1.94786 0.751579 2.30488C0.936938 2.55357 1.17595 2.83473 1.30692 3.11589C1.38009 3.29962 1.40448 3.49449 1.48082 3.68912C1.65472 4.16492 1.81812 4.695 2.04665 5.13856C2.1686 5.36567 2.29664 5.60394 2.44908 5.80923C2.53615 5.93042 2.68858 5.98229 2.72101 6.17692C2.56858 6.39337 2.5581 6.71743 2.47103 6.98817C2.07909 8.21026 2.23152 9.72417 2.78638 10.6239C2.96076 10.8941 3.37172 11.4892 3.92926 11.2618C4.419 11.0672 4.30974 10.4508 4.45119 9.91008C4.48412 9.78041 4.46217 9.69388 4.52729 9.6071V9.63134L4.97361 10.5289C5.31092 11.0587 5.8987 11.6104 6.38819 11.9783C6.64916 12.1729 6.85598 12.5084 7.18231 12.6272V12.5945H7.16085C7.09548 12.4975 6.99744 12.4539 6.91037 12.3782C6.71452 12.1836 6.49697 11.9456 6.34454 11.7294C5.88773 11.1239 5.4853 10.4533 5.12605 9.76126C4.95166 9.42604 4.79923 9.05835 4.65826 8.72314C4.59241 8.59322 4.59241 8.39835 4.48388 8.33387C4.32047 8.57141 4.08145 8.77743 3.96121 9.06926C3.75439 9.53415 3.73293 10.1074 3.65683 10.7022C3.61293 10.7131 3.63245 10.7022 3.61294 10.7264C3.26514 10.6401 3.14515 10.2829 3.01466 9.98037C2.68834 9.21251 2.6337 7.97976 2.91662 7.09288C2.99271 6.86577 3.31953 6.15196 3.18905 5.93575C3.1232 5.73021 2.90613 5.61145 2.78613 5.44905C2.64468 5.24351 2.49273 4.98417 2.39469 4.75705C2.13372 4.1511 2.00324 3.48092 1.72008 2.87521C1.58911 2.59404 1.36083 2.30197 1.17571 2.04263C0.968889 1.75056 0.740848 1.54502 0.57744 1.19914C0.523052 1.07795 0.446957 0.885499 0.534027 0.755582C0.555489 0.669052 0.59939 0.634391 0.685972 0.615001C0.82743 0.49381 1.23034 0.64748 1.3718 0.711954C1.77422 0.874349 2.11153 1.02559 2.44883 1.25246C2.60126 1.36057 2.76467 1.56611 2.96052 1.6204H3.18929C3.53757 1.69602 3.92902 1.64464 4.2551 1.74159C4.83191 1.9258 5.35409 2.19581 5.82236 2.48812C7.24767 3.38566 8.42324 4.6618 9.21735 6.18686C9.34784 6.43554 9.40222 6.66266 9.52222 6.92225C9.75099 7.45233 10.0339 7.99284 10.2619 8.51227C10.4907 9.02054 10.7083 9.53996 11.0346 9.96171C11.198 10.1888 11.8507 10.3076 12.1443 10.4266C12.3621 10.5235 12.6992 10.6108 12.8955 10.7296C13.2652 10.9567 13.6352 11.2163 13.9833 11.465C14.1572 11.5944 14.7015 11.8649 14.734 12.0806L14.7352 12.0748ZM3.63806 2.67718C3.48771 2.67586 3.33783 2.69403 3.19222 2.73123V2.75547H3.21368C3.30075 2.92853 3.45319 3.04754 3.56196 3.19903L3.81244 3.71821L3.8339 3.69397C3.98633 3.58587 4.06267 3.41281 4.06267 3.15346C3.99731 3.07784 3.98658 3.00197 3.93219 2.92635C3.86683 2.81825 3.72537 2.76395 3.63806 2.67767V2.67718Z" fill="#0561B8"/>
</svg>
