<svg width="7" height="11" viewBox="0 0 7 11" fill="none" xmlns="http://www.w3.org/2000/svg">
<path d="M1.12761 9.84022C0.973007 9.68562 0.958952 9.44368 1.08545 9.2732L1.12761 9.22436L4.884 5.46777L1.12761 1.71119C0.973008 1.55658 0.958953 1.31465 1.08545 1.14417L1.12761 1.09532C1.28222 0.940717 1.52415 0.926662 1.69464 1.05316L1.74348 1.09532L5.808 5.15984C5.9626 5.31445 5.97666 5.55638 5.85016 5.72686L5.808 5.77571L1.74348 9.84022C1.57341 10.0103 1.29768 10.0103 1.12761 9.84022Z" fill="#A4A4A4" fill-opacity="0.5"/>
<path d="M0.971905 9.17518L0.971595 9.17491L0.964986 9.18382C0.794837 9.41313 0.813594 9.73834 1.02155 9.94629C1.25019 10.1749 1.6209 10.1749 1.84955 9.94629L5.91406 5.88177L5.91435 5.88206L5.92154 5.87373L5.96371 5.82488L5.96402 5.82515L5.97062 5.81625C6.14077 5.58693 6.12202 5.26173 5.91406 5.05377L1.84955 0.989258L1.84983 0.988973L1.8415 0.981782L1.79266 0.939616L1.79293 0.939306L1.78402 0.932696C1.5547 0.762547 1.2295 0.781304 1.02155 0.989258L1.02126 0.988973L1.01407 0.997304L0.971906 1.04615L0.971596 1.04588L0.964987 1.05479C0.794838 1.2841 0.813595 1.6093 1.02155 1.81725L4.67187 5.46777L1.02155 9.11829L1.02126 9.11801L1.01407 9.12633L0.971905 9.17518Z" stroke="#A4A4A4" stroke-opacity="0.5" stroke-width="0.3"/>
</svg>
