<svg width="14" height="14" viewBox="0 0 14 14" fill="none" xmlns="http://www.w3.org/2000/svg">
<g clip-path="url(#clip0_458_4695)">
<path fill-rule="evenodd" clip-rule="evenodd" d="M11.0626 13.125C12.2316 13.125 13.125 12.1144 13.125 10.9375V4.375H0.875V10.9375C0.875 12.1144 1.76838 13.125 2.93738 13.125H11.0626ZM4.8125 6.125C4.69647 6.125 4.58519 6.17109 4.50314 6.25314C4.42109 6.33519 4.375 6.44647 4.375 6.5625C4.375 6.67853 4.42109 6.78981 4.50314 6.87186C4.58519 6.95391 4.69647 7 4.8125 7H9.1875C9.30353 7 9.41481 6.95391 9.49686 6.87186C9.57891 6.78981 9.625 6.67853 9.625 6.5625C9.625 6.44647 9.57891 6.33519 9.49686 6.25314C9.41481 6.17109 9.30353 6.125 9.1875 6.125H4.8125ZM0.7 0.875C0.514348 0.875 0.336301 0.94875 0.205025 1.08003C0.0737498 1.2113 0 1.38935 0 1.575L0 2.625C0 2.81065 0.0737498 2.9887 0.205025 3.11997C0.336301 3.25125 0.514348 3.325 0.7 3.325H13.3C13.4857 3.325 13.6637 3.25125 13.795 3.11997C13.9262 2.9887 14 2.81065 14 2.625V1.575C14 1.38935 13.9262 1.2113 13.795 1.08003C13.6637 0.94875 13.4857 0.875 13.3 0.875H0.7Z" fill="white"/>
</g>
<defs>
<clipPath id="clip0_458_4695">
<rect width="14" height="14" fill="white"/>
</clipPath>
</defs>
</svg>
