<svg width="14" height="14" viewBox="0 0 14 14" fill="none" xmlns="http://www.w3.org/2000/svg">
<path fill-rule="evenodd" clip-rule="evenodd" d="M0 1.75C0 1.51794 0.0921872 1.29538 0.256282 1.13128C0.420376 0.967187 0.642936 0.875 0.875 0.875H13.125C13.3571 0.875 13.5796 0.967187 13.7437 1.13128C13.9078 1.29538 14 1.51794 14 1.75V3.5C14 3.73206 13.9078 3.95462 13.7437 4.11872C13.5796 4.28281 13.3571 4.375 13.125 4.375V10.9375C13.125 11.5177 12.8945 12.0741 12.4843 12.4843C12.0741 12.8945 11.5177 13.125 10.9375 13.125H3.0625C2.48234 13.125 1.92594 12.8945 1.5157 12.4843C1.10547 12.0741 0.875 11.5177 0.875 10.9375V4.375C0.642936 4.375 0.420376 4.28281 0.256282 4.11872C0.0921872 3.95462 0 3.73206 0 3.5V1.75ZM1.75 4.375V10.9375C1.75 11.2856 1.88828 11.6194 2.13442 11.8656C2.38056 12.1117 2.7144 12.25 3.0625 12.25H10.9375C11.2856 12.25 11.6194 12.1117 11.8656 11.8656C12.1117 11.6194 12.25 11.2856 12.25 10.9375V4.375H1.75ZM13.125 1.75H0.875V3.5H13.125V1.75ZM4.375 6.5625C4.375 6.44647 4.42109 6.33519 4.50314 6.25314C4.58519 6.17109 4.69647 6.125 4.8125 6.125H9.1875C9.30353 6.125 9.41481 6.17109 9.49686 6.25314C9.57891 6.33519 9.625 6.44647 9.625 6.5625C9.625 6.67853 9.57891 6.78981 9.49686 6.87186C9.41481 6.95391 9.30353 7 9.1875 7H4.8125C4.69647 7 4.58519 6.95391 4.50314 6.87186C4.42109 6.78981 4.375 6.67853 4.375 6.5625Z" fill="#272727"/>
</svg>
