<svg width="7" height="11" viewBox="0 0 7 11" fill="none" xmlns="http://www.w3.org/2000/svg">
<path d="M5.80793 1.09532C5.96254 1.24993 5.9766 1.49186 5.8501 1.66235L5.80793 1.71119L2.05155 5.46777L5.80793 9.22436C5.96254 9.37896 5.97659 9.6209 5.8501 9.79138L5.80793 9.84022C5.65333 9.99483 5.41139 10.0089 5.24091 9.88239L5.19207 9.84022L1.12755 5.77571C0.972944 5.6211 0.958889 5.37917 1.08539 5.20868L1.12755 5.15984L5.19207 1.09532C5.36213 0.925257 5.63787 0.925257 5.80793 1.09532Z" fill="#A4A4A4" fill-opacity="0.5"/>
<path d="M5.96364 1.76037L5.96395 1.76064L5.97056 1.75173C6.14071 1.52241 6.12195 1.19721 5.914 0.989258C5.68535 0.760612 5.31465 0.760612 5.086 0.989258L1.02148 5.05377L1.0212 5.05349L1.01401 5.06182L0.971842 5.11066L0.971532 5.11039L0.964923 5.1193C0.794774 5.34862 0.81353 5.67382 1.02148 5.88177L5.086 9.94629L5.08572 9.94657L5.09405 9.95376L5.14289 9.99593L5.14262 9.99624L5.15153 10.0029C5.38085 10.173 5.70605 10.1542 5.914 9.94629L5.91428 9.94657L5.92148 9.93824L5.96364 9.8894L5.96395 9.88967L5.97056 9.88076C6.14071 9.65144 6.12195 9.32624 5.914 9.11829L2.26367 5.46777L5.914 1.81725L5.91429 1.81754L5.92148 1.80921L5.96364 1.76037Z" stroke="#A4A4A4" stroke-opacity="0.5" stroke-width="0.3"/>
</svg>
