<svg width="14" height="15" viewBox="0 0 14 15" fill="none" xmlns="http://www.w3.org/2000/svg">
<path d="M1 2V5.4513H4.36048" stroke="white" stroke-width="1.2" stroke-linecap="round" stroke-linejoin="round"/>
<path d="M11.0814 7.75232C11.0805 6.75335 10.7983 5.77597 10.2686 4.93809C9.73897 4.1002 8.9846 3.43759 8.09648 3.03018C7.20837 2.62277 6.22445 2.48796 5.2634 2.642C4.30236 2.79605 3.40523 3.23238 2.68024 3.89836L1 5.45145" stroke="white" stroke-width="1.2" stroke-linecap="round" stroke-linejoin="round"/>
<path d="M11.0812 13.5045V10.0532H7.7207" stroke="white" stroke-width="1.2" stroke-linecap="round" stroke-linejoin="round"/>
<path d="M1 7.75195C1.00089 8.75092 1.28318 9.7283 1.81282 10.5662C2.34246 11.4041 3.09683 12.0667 3.98495 12.4741C4.87306 12.8815 5.85698 13.0163 6.81803 12.8623C7.77908 12.7082 8.6762 12.2719 9.40119 11.6059L11.0814 10.0528" stroke="white" stroke-width="1.2" stroke-linecap="round" stroke-linejoin="round"/>
</svg>
