<svg width="16" height="13" viewBox="0 0 16 13" fill="none" xmlns="http://www.w3.org/2000/svg">
<path d="M10.7058 9.02409L8.53925 9.07759L7.72225 10.9526L5.59225 11.5086L4.25975 12.7241H14.989C15.545 12.7241 15.997 12.2721 15.997 11.7161V6.38509L12.1925 7.33609L10.7058 9.02409ZM2.89 9.18159L1.085 10.7316C1.06825 10.6211 1.025 10.5106 0.9475 10.4166L0 11.2141C0.201 11.4516 0.53925 11.4991 0.797 11.3416L2.562 10.5416L2.89 9.18159ZM13.368 3.74009L13.5855 4.31609C13.9237 4.22909 14.443 3.85734 14.808 3.56934C14.7945 3.66984 14.8013 3.77034 14.838 3.87084L16 3.44159C15.8795 3.12009 15.5245 2.95909 15.203 3.07659C15.193 3.07984 15.183 3.08659 15.173 3.09334L15.1763 3.09009L13.368 3.74009ZM15.368 4.71109H15.3612L13.2312 4.52684L12.7458 3.25109V1.89859C12.8428 1.95209 12.95 1.98234 13.0673 1.98234C13.4187 1.98234 13.7067 1.71109 13.7402 1.36984L14.2493 1.03159L14.2257 0.345088C14.2225 0.275088 14.1688 0.221088 14.0983 0.221088L13.462 0.211088C13.328 0.0235877 13.0802 -0.0569122 12.8625 0.0435878L11.4625 0.699838C11.4657 0.703088 11.4657 0.709838 11.4657 0.713338C11.5127 0.810338 11.5833 0.884088 11.6667 0.937588C9.96225 1.81834 9.23925 3.00709 9.23925 3.00709L2.72575 6.51559C2.344 6.71984 1.86525 6.57559 1.66075 6.19409C1.45625 5.81259 1.60075 5.33359 1.98225 5.12909L3.83075 4.13459C4.2995 3.88334 4.57425 3.41459 4.60775 2.92209L1.651 4.51309C1.30403 4.69986 1.04534 5.01668 0.931725 5.39399C0.818109 5.7713 0.858848 6.17828 1.045 6.52559C1.3125 7.02459 1.825 7.30909 2.3575 7.30909C2.595 7.30909 2.83625 7.25209 3.0575 7.13409L3.89125 6.68534C3.83125 7.01359 3.85775 7.36534 3.98825 7.69659C4.03175 7.81034 4.062 7.88084 4.062 7.88084C4.357 8.52034 3.96825 9.02284 3.4595 9.02284H3.29875L2.7125 11.5721C2.63212 11.4888 2.53001 11.4296 2.41775 11.4013L2.1265 12.6038C2.2664 12.6376 2.41372 12.6213 2.54282 12.5577C2.67191 12.494 2.7746 12.3871 2.833 12.2556L4.1625 9.87134C5.8435 9.70734 6.7275 8.56884 6.6875 6.96459C8.42875 7.07209 10.7495 5.97709 11.7808 4.47959C12.5642 5.47409 14.0445 5.33359 14.7043 5.08209L14.8317 5.03859C14.7831 5.1292 14.7578 5.23049 14.758 5.33334L15.997 5.31984C15.9902 4.98159 15.712 4.70734 15.3708 4.71034L15.368 4.71109ZM3.8185 2.45409C3.87676 2.56359 3.90885 2.6851 3.91225 2.80909L4.56525 2.45759C4.53525 2.34384 4.49525 2.23009 4.43475 2.12259L4.40125 2.05909L3.785 2.39059L3.8185 2.45409ZM3.581 2.01209L4.19725 1.68059L4.11725 1.53309C4.07306 1.45117 3.99826 1.39006 3.90918 1.36308C3.8201 1.3361 3.72396 1.34545 3.64175 1.38909C3.55983 1.43328 3.49872 1.50807 3.47174 1.59716C3.44476 1.68624 3.45411 1.78237 3.49775 1.86459L3.581 2.01209Z" fill="#0561B8"/>
<path d="M13.0329 0.380859C12.9224 0.380859 12.8329 0.471359 12.8329 0.581859C12.8329 0.692359 12.9234 0.78286 13.0329 0.78286C13.1434 0.78286 13.2339 0.692359 13.2339 0.581859C13.2339 0.471359 13.1434 0.380859 13.0329 0.380859ZM11.8679 1.87761C11.8209 1.90436 11.7909 1.94111 11.7909 1.94111C11.7909 1.94111 11.8747 2.03811 11.9784 2.03811C12.0822 2.03811 12.1659 1.94111 12.1659 1.94111C12.1659 1.94111 12.1359 1.90436 12.0889 1.87761C12.1627 1.84761 12.2129 1.80061 12.2129 1.80061C12.2129 1.80061 12.1629 1.75361 12.0889 1.72361C12.1359 1.69686 12.1659 1.66011 12.1659 1.66011C12.1659 1.66011 12.0822 1.56311 11.9784 1.56311C11.8747 1.56311 11.7909 1.66011 11.7909 1.66011C11.7909 1.66011 11.8209 1.69686 11.8679 1.72361C11.7942 1.75361 11.7439 1.80061 11.7439 1.80061C11.7798 1.83415 11.822 1.86031 11.8679 1.87761ZM11.1914 2.12211C11.1914 2.12211 11.1077 2.02511 11.0039 2.02511C10.9002 2.02511 10.8164 2.12211 10.8164 2.12211C10.8164 2.12211 10.8464 2.15886 10.8934 2.18561C10.8197 2.21561 10.7694 2.26261 10.7694 2.26261C10.8063 2.29485 10.8482 2.32086 10.8934 2.33961C10.8464 2.36636 10.8164 2.40311 10.8164 2.40311C10.8164 2.40311 10.9002 2.50011 11.0039 2.50011C11.1077 2.50011 11.1914 2.40311 11.1914 2.40311C11.1914 2.40311 11.1614 2.36636 11.1144 2.33961C11.1882 2.30961 11.2384 2.26261 11.2384 2.26261C11.2384 2.26261 11.1884 2.21561 11.1144 2.18561C11.1614 2.15561 11.1914 2.12211 11.1914 2.12211ZM12.0822 3.06961C12.0822 3.06961 12.0522 3.03286 12.0052 3.00611C12.0789 2.97611 12.1292 2.92911 12.1292 2.92911C12.1292 2.92911 12.0792 2.88211 12.0052 2.85211C12.0522 2.82536 12.0822 2.78861 12.0822 2.78861C12.0822 2.78861 11.9984 2.69161 11.8947 2.69161C11.7909 2.69161 11.7072 2.78861 11.7072 2.78861C11.7072 2.78861 11.7372 2.82536 11.7842 2.85211C11.7104 2.88211 11.6602 2.92911 11.6602 2.92911C11.6971 2.96135 11.739 2.98736 11.7842 3.00611C11.7372 3.03286 11.7072 3.06961 11.7072 3.06961C11.7072 3.06961 11.7909 3.16661 11.8947 3.16661C11.9952 3.16661 12.0822 3.06961 12.0822 3.06961ZM11.0672 3.40786C11.1142 3.38111 11.1442 3.34436 11.1442 3.34436C11.1442 3.34436 11.0604 3.24736 10.9567 3.24736C10.8529 3.24736 10.7692 3.34436 10.7692 3.34436C10.7692 3.34436 10.7992 3.38111 10.8462 3.40786C10.7724 3.43786 10.7222 3.48486 10.7222 3.48486C10.7591 3.5171 10.801 3.54311 10.8462 3.56186C10.7992 3.58861 10.7692 3.62536 10.7692 3.62536C10.7692 3.62536 10.8529 3.72236 10.9567 3.72236C11.0604 3.72236 11.1442 3.62536 11.1442 3.62536C11.1442 3.62536 11.1142 3.58861 11.0672 3.56186C11.1409 3.53186 11.1912 3.48486 11.1912 3.48486C11.1912 3.48486 11.1442 3.43786 11.0672 3.40786ZM10.1097 3.11661C10.1567 3.08986 10.1867 3.05311 10.1867 3.05311C10.1867 3.05311 10.103 2.95611 9.9992 2.95611C9.89545 2.95611 9.8117 3.05311 9.8117 3.05311C9.8117 3.05311 9.8417 3.08986 9.8887 3.11661C9.81495 3.14661 9.7647 3.19361 9.7647 3.19361C9.80157 3.22585 9.84345 3.25186 9.8887 3.27061C9.8417 3.29736 9.8117 3.33411 9.8117 3.33411C9.8117 3.33411 9.89545 3.43111 9.9992 3.43111C10.103 3.43111 10.1867 3.33411 10.1867 3.33411C10.1867 3.33411 10.1567 3.29736 10.1097 3.27061C10.1834 3.24061 10.2337 3.19361 10.2337 3.19361C10.2337 3.19361 10.1837 3.14661 10.1097 3.11661ZM9.73795 4.25511C9.73795 4.25511 9.70795 4.21836 9.66095 4.19161C9.7347 4.16161 9.78495 4.11461 9.78495 4.11461C9.78495 4.11461 9.73495 4.06761 9.66095 4.03761C9.70795 4.01086 9.73795 3.97411 9.73795 3.97411C9.73795 3.97411 9.6542 3.87711 9.55045 3.87711C9.4467 3.87711 9.36295 3.97411 9.36295 3.97411C9.36295 3.97411 9.39295 4.01086 9.43995 4.03761C9.3662 4.06761 9.31595 4.11461 9.31595 4.11461C9.35282 4.14685 9.3947 4.17286 9.43995 4.19161C9.39295 4.21836 9.36295 4.25511 9.36295 4.25511C9.36295 4.25511 9.4467 4.35211 9.55045 4.35211C9.6542 4.35211 9.73795 4.25511 9.73795 4.25511ZM8.0937 4.42261C8.0937 4.42261 8.17745 4.51961 8.2812 4.51961C8.38495 4.51961 8.4687 4.42261 8.4687 4.42261C8.4687 4.42261 8.4387 4.38586 8.3917 4.35911C8.46545 4.32911 8.5157 4.28211 8.5157 4.28211C8.5157 4.28211 8.4657 4.23511 8.3917 4.20511C8.4387 4.17836 8.4687 4.14161 8.4687 4.14161C8.4687 4.14161 8.38495 4.04461 8.2812 4.04461C8.17745 4.04461 8.0937 4.14161 8.0937 4.14161C8.0937 4.14161 8.1237 4.17836 8.1707 4.20511C8.09695 4.23511 8.0467 4.28211 8.0467 4.28211C8.08357 4.31435 8.12545 4.34036 8.1707 4.35911C8.1237 4.38911 8.0937 4.42261 8.0937 4.42261ZM8.99795 4.99861C9.04495 4.97186 9.07495 4.93511 9.07495 4.93511C9.07495 4.93511 8.9912 4.83811 8.88745 4.83811C8.7837 4.83811 8.69995 4.93511 8.69995 4.93511C8.69995 4.93511 8.72995 4.97186 8.77695 4.99861C8.7032 5.02861 8.65295 5.07561 8.65295 5.07561C8.68982 5.10785 8.7317 5.13386 8.77695 5.15261C8.72995 5.17936 8.69995 5.21611 8.69995 5.21611C8.69995 5.21611 8.7837 5.31311 8.88745 5.31311C8.9912 5.31311 9.07495 5.21611 9.07495 5.21611C9.07495 5.21611 9.04495 5.17936 8.99795 5.15261C9.0717 5.12261 9.12195 5.07561 9.12195 5.07561C9.12195 5.07561 9.07195 5.02561 8.99795 4.99861ZM9.9892 5.21611C10.0362 5.18936 10.0662 5.15261 10.0662 5.15261C10.0662 5.15261 9.98245 5.05561 9.8787 5.05561C9.77495 5.05561 9.6912 5.15261 9.6912 5.15261C9.6912 5.15261 9.7212 5.18936 9.7682 5.21611C9.69445 5.24611 9.6442 5.29311 9.6442 5.29311C9.68107 5.32535 9.72295 5.35136 9.7682 5.37011C9.7212 5.39686 9.6912 5.43361 9.6912 5.43361C9.6912 5.43361 9.77495 5.53061 9.8787 5.53061C9.98245 5.53061 10.0662 5.43361 10.0662 5.43361C10.0662 5.43361 10.0362 5.39686 9.9892 5.37011C10.0629 5.34011 10.1132 5.29311 10.1132 5.29311C10.1132 5.29311 10.0632 5.24611 9.9892 5.21611ZM10.7997 4.43261C10.8467 4.40586 10.8767 4.36911 10.8767 4.36911C10.8767 4.36911 10.7929 4.27211 10.6892 4.27211C10.5854 4.27211 10.5017 4.36911 10.5017 4.36911C10.5017 4.36911 10.5317 4.40586 10.5787 4.43261C10.5049 4.46261 10.4547 4.50961 10.4547 4.50961C10.4916 4.54185 10.5335 4.56786 10.5787 4.58661C10.5317 4.61336 10.5017 4.65011 10.5017 4.65011C10.5017 4.65011 10.5854 4.74711 10.6892 4.74711C10.7929 4.74711 10.8767 4.65011 10.8767 4.65011C10.8767 4.65011 10.8467 4.61336 10.7997 4.58661C10.8734 4.55661 10.9237 4.50961 10.9237 4.50961C10.9237 4.50961 10.8737 4.45961 10.7997 4.43261ZM12.2529 3.77961C12.2999 3.75286 12.3299 3.71611 12.3299 3.71611C12.3299 3.71611 12.2462 3.61911 12.1424 3.61911C12.0387 3.61911 11.9549 3.71611 11.9549 3.71611C11.9549 3.71611 11.9849 3.75286 12.0319 3.77961C11.9582 3.80961 11.9079 3.85661 11.9079 3.85661C11.9448 3.88885 11.9867 3.91486 12.0319 3.93361C11.9849 3.96036 11.9549 3.99711 11.9549 3.99711C11.9549 3.99711 12.0387 4.09411 12.1424 4.09411C12.2462 4.09411 12.3299 3.99711 12.3299 3.99711C12.3299 3.99711 12.2999 3.96036 12.2529 3.93361C12.3267 3.90361 12.3769 3.85661 12.3769 3.85661C12.3769 3.85661 12.3269 3.80661 12.2529 3.77961ZM7.48445 5.01211C7.53145 4.98536 7.56145 4.94861 7.56145 4.94861C7.56145 4.94861 7.4777 4.85161 7.37395 4.85161C7.2702 4.85161 7.18645 4.94861 7.18645 4.94861C7.18645 4.94861 7.21645 4.98536 7.26345 5.01211C7.1897 5.04211 7.13945 5.08911 7.13945 5.08911C7.17632 5.12135 7.2182 5.14736 7.26345 5.16611C7.21645 5.19286 7.18645 5.22961 7.18645 5.22961C7.18645 5.22961 7.2702 5.32661 7.37395 5.32661C7.4777 5.32661 7.56145 5.22961 7.56145 5.22961C7.56145 5.22961 7.53145 5.19286 7.48445 5.16611C7.5582 5.13611 7.60845 5.08911 7.60845 5.08911C7.60845 5.08911 7.55845 5.04211 7.48445 5.01211ZM8.45195 5.96636C8.49895 5.93961 8.52895 5.90286 8.52895 5.90286C8.52895 5.90286 8.4452 5.80586 8.34145 5.80586C8.2377 5.80586 8.15395 5.90286 8.15395 5.90286C8.15395 5.90286 8.18395 5.93961 8.23095 5.96636C8.1572 5.99636 8.10695 6.04336 8.10695 6.04336C8.14382 6.0756 8.1857 6.10161 8.23095 6.12036C8.18395 6.14711 8.15395 6.18386 8.15395 6.18386C8.15395 6.18386 8.2377 6.28086 8.34145 6.28086C8.4452 6.28086 8.52895 6.18386 8.52895 6.18386C8.52895 6.18386 8.49895 6.14711 8.45195 6.12036C8.5257 6.09036 8.57595 6.04336 8.57595 6.04336C8.57595 6.04336 8.52595 5.99336 8.45195 5.96636ZM7.21945 6.14061C7.26645 6.11386 7.29645 6.07711 7.29645 6.07711C7.29645 6.07711 7.2127 5.98011 7.10895 5.98011C7.0052 5.98011 6.92145 6.07711 6.92145 6.07711C6.92145 6.07711 6.95145 6.11386 6.99845 6.14061C6.9247 6.17061 6.87445 6.21761 6.87445 6.21761C6.91132 6.24985 6.9532 6.27586 6.99845 6.29461C6.95145 6.32136 6.92145 6.35811 6.92145 6.35811C6.92145 6.35811 7.0052 6.45511 7.10895 6.45511C7.2127 6.45511 7.29645 6.35811 7.29645 6.35811C7.29645 6.35811 7.26645 6.32136 7.21945 6.29461C7.2932 6.26461 7.34345 6.21761 7.34345 6.21761C7.34345 6.21761 7.29645 6.16761 7.21945 6.14061ZM6.21495 5.43061C6.26195 5.40386 6.29195 5.36711 6.29195 5.36711C6.29195 5.36711 6.2082 5.27011 6.10445 5.27011C6.0007 5.27011 5.91695 5.36711 5.91695 5.36711C5.91695 5.36711 5.94695 5.40386 5.99395 5.43061C5.9202 5.46061 5.86995 5.50761 5.86995 5.50761C5.90682 5.53985 5.9487 5.56586 5.99395 5.58461C5.94695 5.61136 5.91695 5.64811 5.91695 5.64811C5.91695 5.64811 6.0007 5.74511 6.10445 5.74511C6.2082 5.74511 6.29195 5.64811 6.29195 5.64811C6.29195 5.64811 6.26195 5.61136 6.21495 5.58461C6.2887 5.55461 6.33895 5.50761 6.33895 5.50761C6.33895 5.50761 6.28895 5.45761 6.21495 5.43061ZM4.78845 6.34811C4.74145 6.37486 4.71145 6.41161 4.71145 6.41161C4.71145 6.41161 4.7952 6.50861 4.89895 6.50861C5.0027 6.50861 5.08645 6.41161 5.08645 6.41161C5.08645 6.41161 5.05645 6.37486 5.00945 6.34811C5.0832 6.31811 5.13345 6.27111 5.13345 6.27111C5.13345 6.27111 5.08345 6.22411 5.00945 6.19411C5.05645 6.16736 5.08645 6.13061 5.08645 6.13061C5.08645 6.13061 5.0027 6.03361 4.89895 6.03361C4.7952 6.03361 4.71145 6.13061 4.71145 6.13061C4.71145 6.13061 4.74145 6.16736 4.78845 6.19411C4.7147 6.22411 4.66445 6.27111 4.66445 6.27111C4.70132 6.30335 4.7432 6.32936 4.78845 6.34811ZM6.07095 6.68961C6.11795 6.66286 6.14795 6.62611 6.14795 6.62611C6.14795 6.62611 6.0642 6.52911 5.96045 6.52911C5.8567 6.52911 5.77295 6.62611 5.77295 6.62611C5.77295 6.62611 5.80295 6.66286 5.84995 6.68961C5.7762 6.71961 5.72595 6.76661 5.72595 6.76661C5.76282 6.79885 5.8047 6.82486 5.84995 6.84361C5.80295 6.87036 5.77295 6.90711 5.77295 6.90711C5.77295 6.90711 5.8567 7.00411 5.96045 7.00411C6.0642 7.00411 6.14795 6.90711 6.14795 6.90711C6.14795 6.90711 6.11795 6.87036 6.07095 6.84361C6.1447 6.81361 6.19495 6.76661 6.19495 6.76661C6.19495 6.76661 6.14495 6.71661 6.07095 6.68961ZM5.85995 7.73461C5.90695 7.70786 5.93695 7.67111 5.93695 7.67111C5.93695 7.67111 5.8532 7.57411 5.74945 7.57411C5.6457 7.57411 5.56195 7.67111 5.56195 7.67111C5.56195 7.67111 5.59195 7.70786 5.63895 7.73461C5.5652 7.76461 5.51495 7.81161 5.51495 7.81161C5.55182 7.84385 5.5937 7.86986 5.63895 7.88861C5.59195 7.91536 5.56195 7.95211 5.56195 7.95211C5.56195 7.95211 5.6457 8.04911 5.74945 8.04911C5.8532 8.04911 5.93695 7.95211 5.93695 7.95211C5.93695 7.95211 5.90695 7.91536 5.85995 7.88861C5.9337 7.85861 5.98395 7.81161 5.98395 7.81161C5.98395 7.81161 5.93395 7.76461 5.85995 7.73461ZM4.88245 7.58386C4.88245 7.58386 4.85245 7.54711 4.80545 7.52036C4.8792 7.49036 4.92945 7.44336 4.92945 7.44336C4.92945 7.44336 4.87945 7.39636 4.80545 7.36636C4.85245 7.33961 4.88245 7.30286 4.88245 7.30286C4.88245 7.30286 4.7987 7.20586 4.69495 7.20586C4.5912 7.20586 4.50745 7.30286 4.50745 7.30286C4.50745 7.30286 4.53745 7.33961 4.58445 7.36636C4.5107 7.39636 4.46045 7.44336 4.46045 7.44336C4.49732 7.4756 4.5392 7.50161 4.58445 7.52036C4.53745 7.54711 4.50745 7.58386 4.50745 7.58386C4.50745 7.58386 4.5912 7.68086 4.69495 7.68086C4.79545 7.68411 4.88245 7.58386 4.88245 7.58386ZM5.13695 8.57136C5.18395 8.54461 5.21395 8.50786 5.21395 8.50786C5.21395 8.50786 5.1302 8.41086 5.02645 8.41086C4.9227 8.41086 4.83895 8.50786 4.83895 8.50786C4.83895 8.50786 4.86895 8.54461 4.91595 8.57136C4.8422 8.60136 4.79195 8.64836 4.79195 8.64836C4.82882 8.6806 4.8707 8.70661 4.91595 8.72536C4.86895 8.75211 4.83895 8.78886 4.83895 8.78886C4.83895 8.78886 4.9227 8.88586 5.02645 8.88586C5.1302 8.88586 5.21395 8.78886 5.21395 8.78886C5.21395 8.78886 5.18395 8.75211 5.13695 8.72536C5.2107 8.69536 5.26095 8.64836 5.26095 8.64836C5.26095 8.64836 5.21095 8.59836 5.13695 8.57136Z" fill="#F9FAFB"/>
</svg>
