<svg width="14" height="14" viewBox="0 0 14 14" fill="none" xmlns="http://www.w3.org/2000/svg">
<path d="M8.22908 0.919088C7.86788 -0.306363 6.13212 -0.306362 5.77092 0.919088L5.68333 1.21628C5.45254 1.99929 4.55818 2.36974 3.84132 1.97926L3.56924 1.83106C2.44731 1.21994 1.21994 2.44731 1.83106 3.56924L1.97926 3.84132C2.36974 4.55819 1.99929 5.45254 1.21628 5.68333L0.919088 5.77092C-0.306363 6.13212 -0.306362 7.86788 0.919088 8.22908L1.21628 8.31668C1.99929 8.54747 2.36974 9.44182 1.97926 10.1587L1.83106 10.4308C1.21994 11.5527 2.44731 12.7801 3.56924 12.1689L3.84132 12.0207C4.55818 11.6303 5.45254 12.0007 5.68333 12.7837L5.77092 13.0809C6.13212 14.3064 7.86788 14.3064 8.22908 13.0809L8.31667 12.7837C8.54746 12.0007 9.44182 11.6303 10.1587 12.0207L10.4308 12.1689C11.5527 12.7801 12.7801 11.5527 12.1689 10.4308L12.0207 10.1587C11.6303 9.44182 12.0007 8.54747 12.7837 8.31668L13.0809 8.22908C14.3064 7.86788 14.3064 6.13212 13.0809 5.77092L12.7837 5.68333C12.0007 5.45254 11.6303 4.55818 12.0207 3.84132L12.1689 3.56924C12.7801 2.44731 11.5527 1.21994 10.4308 1.83106L10.1587 1.97926C9.44182 2.36974 8.54746 1.99929 8.31667 1.21628L8.22908 0.919088ZM7 9.56271C5.58465 9.56271 4.43729 8.41535 4.43729 7C4.43729 5.58465 5.58465 4.43729 7 4.43729C8.41535 4.43729 9.56271 5.58465 9.56271 7C9.56271 8.41535 8.41535 9.56271 7 9.56271Z" fill="#255475"/>
</svg>
