<svg width="8" height="11" viewBox="0 0 8 11" fill="none" xmlns="http://www.w3.org/2000/svg">
<path d="M3.55 10C3.55 10.2485 3.75147 10.45 4 10.45C4.24853 10.45 4.45 10.2485 4.45 10L3.55 10ZM4.3182 0.681802C4.14246 0.506066 3.85754 0.506066 3.6818 0.681802L0.81802 3.54558C0.642284 3.72132 0.642284 4.00624 0.81802 4.18198C0.993756 4.35772 1.27868 4.35772 1.45442 4.18198L4 1.6364L6.54558 4.18198C6.72132 4.35772 7.00624 4.35772 7.18198 4.18198C7.35772 4.00624 7.35772 3.72132 7.18198 3.54558L4.3182 0.681802ZM4.45 10L4.45 1L3.55 1L3.55 10L4.45 10Z" fill="black"/>
</svg>
