<svg width="13" height="12" viewBox="0 0 13 12" fill="none" xmlns="http://www.w3.org/2000/svg">
<path fill-rule="evenodd" clip-rule="evenodd" d="M9.44922 11.25C9.65633 11.25 9.82422 11.0821 9.82422 10.875V2.03033L12.1841 4.39017C12.3305 4.53661 12.5679 4.53661 12.7144 4.39017C12.8608 4.24372 12.8608 4.00628 12.7144 3.85983L9.71438 0.859835C9.56794 0.713388 9.3305 0.713388 9.18405 0.859835L6.18405 3.85983C6.03761 4.00628 6.03761 4.24372 6.18405 4.39017C6.3305 4.53661 6.56794 4.53661 6.71438 4.39017L9.07422 2.03033V10.875C9.07422 11.0821 9.24211 11.25 9.44922 11.25Z" fill="black"/>
<path fill-rule="evenodd" clip-rule="evenodd" d="M4.19922 0.75C4.40633 0.75 4.57422 0.917893 4.57422 1.125V9.96967L6.93405 7.60983C7.0805 7.46339 7.31794 7.46339 7.46438 7.60983C7.61083 7.75628 7.61083 7.99372 7.46438 8.14017L4.46438 11.1402C4.31794 11.2866 4.0805 11.2866 3.93405 11.1402L0.934054 8.14017C0.787607 7.99372 0.787607 7.75628 0.934054 7.60983C1.0805 7.46339 1.31794 7.46339 1.46438 7.60983L3.82422 9.96967V1.125C3.82422 0.917893 3.99211 0.75 4.19922 0.75Z" fill="black"/>
</svg>
