<svg width="8" height="11" viewBox="0 0 8 11" fill="none" xmlns="http://www.w3.org/2000/svg">
<path d="M4.45 1C4.45 0.751472 4.24853 0.55 4 0.55C3.75147 0.55 3.55 0.751472 3.55 1L4.45 1ZM3.6818 10.3182C3.85754 10.4939 4.14246 10.4939 4.3182 10.3182L7.18198 7.45442C7.35772 7.27868 7.35772 6.99376 7.18198 6.81802C7.00624 6.64228 6.72132 6.64228 6.54558 6.81802L4 9.3636L1.45442 6.81802C1.27868 6.64228 0.993755 6.64228 0.818019 6.81802C0.642283 6.99376 0.642283 7.27868 0.818019 7.45442L3.6818 10.3182ZM3.55 1L3.55 10L4.45 10L4.45 1L3.55 1Z" fill="black"/>
</svg>
