<svg width="11" height="7" viewBox="0 0 11 7" fill="none" xmlns="http://www.w3.org/2000/svg">
<path d="M1.85794 0.896146L1.85095 0.890115L1.84354 0.884615C1.575 0.685364 1.19429 0.707255 0.950774 0.950774C0.683075 1.21847 0.683075 1.6525 0.950774 1.92019L5.01529 5.98471L5.02177 5.99119L5.0287 5.99717L5.07754 6.03934L5.08453 6.04537L5.09194 6.05087C5.36048 6.25012 5.74119 6.22823 5.98471 5.98471L10.0492 1.92019L10.0557 1.91372L10.0617 1.90679L10.1039 1.85794L10.1099 1.85096L10.1154 1.84354C10.3146 1.575 10.2927 1.19429 10.0492 0.950773L10.0427 0.944297L10.0358 0.938312L9.98697 0.896147L9.97999 0.890115L9.97257 0.884615C9.70404 0.685364 9.32333 0.707255 9.07981 0.950773L5.5 4.53039L1.92019 0.950769L1.91372 0.944295L1.90678 0.938312L1.85794 0.896146Z" fill="#272727" stroke="#272727" stroke-width="0.5"/>
</svg>
