<svg width="38" height="38" viewBox="0 0 38 38" fill="none" xmlns="http://www.w3.org/2000/svg">
<circle cx="19" cy="19" r="19" fill="#0561B8"/>
<path d="M27 29V27C27 25.9391 26.5786 24.9217 25.8284 24.1716C25.0783 23.4214 24.0609 23 23 23H15C13.9391 23 12.9217 23.4214 12.1716 24.1716C11.4214 24.9217 11 25.9391 11 27V29" stroke="white" stroke-width="2" stroke-linecap="round" stroke-linejoin="round"/>
<path d="M19 19C21.2091 19 23 17.2091 23 15C23 12.7909 21.2091 11 19 11C16.7909 11 15 12.7909 15 15C15 17.2091 16.7909 19 19 19Z" stroke="white" stroke-width="2" stroke-linecap="round" stroke-linejoin="round"/>
</svg>
