<svg width="17" height="17" viewBox="0 0 17 17" fill="none" xmlns="http://www.w3.org/2000/svg">
<path d="M7.4375 14.875C7.4375 14.875 6.375 14.875 6.375 13.8125C6.375 12.75 7.4375 9.5625 11.6875 9.5625C15.9375 9.5625 17 12.75 17 13.8125C17 14.875 15.9375 14.875 15.9375 14.875H7.4375Z" fill="#255475"/>
<path d="M11.6875 8.5C13.4479 8.5 14.875 7.07291 14.875 5.3125C14.875 3.55209 13.4479 2.125 11.6875 2.125C9.92709 2.125 8.5 3.55209 8.5 5.3125C8.5 7.07291 9.92709 8.5 11.6875 8.5Z" fill="#255475"/>
<path d="M5.54238 14.875C5.39279 14.5732 5.3125 14.2153 5.3125 13.8125C5.3125 12.3723 6.03399 10.8912 7.36943 9.85996C6.78523 9.6731 6.10416 9.5625 5.3125 9.5625C1.0625 9.5625 0 12.75 0 13.8125C0 14.875 1.0625 14.875 1.0625 14.875H5.54238Z" fill="#255475"/>
<path d="M4.78125 8.5C6.24826 8.5 7.4375 7.31076 7.4375 5.84375C7.4375 4.37674 6.24826 3.1875 4.78125 3.1875C3.31424 3.1875 2.125 4.37674 2.125 5.84375C2.125 7.31076 3.31424 8.5 4.78125 8.5Z" fill="#255475"/>
</svg>
