<svg width="14" height="12" viewBox="0 0 14 12" fill="none" xmlns="http://www.w3.org/2000/svg">
<path d="M6.125 11.25C6.125 11.25 5.25 11.25 5.25 10.375C5.25 9.5 6.125 6.875 9.625 6.875C13.125 6.875 14 9.5 14 10.375C14 11.25 13.125 11.25 13.125 11.25H6.125Z" fill="white"/>
<path d="M9.625 6C11.0747 6 12.25 4.82475 12.25 3.375C12.25 1.92525 11.0747 0.75 9.625 0.75C8.17525 0.75 7 1.92525 7 3.375C7 4.82475 8.17525 6 9.625 6Z" fill="white"/>
<path d="M4.56432 11.25C4.44112 11.0014 4.375 10.7067 4.375 10.375C4.375 9.18898 4.96917 7.96923 6.06894 7.11997C5.58783 6.96608 5.02696 6.875 4.375 6.875C0.875 6.875 0 9.5 0 10.375C0 11.25 0.875 11.25 0.875 11.25H4.56432Z" fill="white"/>
<path d="M3.9375 6C5.14562 6 6.125 5.02062 6.125 3.8125C6.125 2.60438 5.14562 1.625 3.9375 1.625C2.72938 1.625 1.75 2.60438 1.75 3.8125C1.75 5.02062 2.72938 6 3.9375 6Z" fill="white"/>
</svg>
