<svg width="131" height="31" viewBox="0 0 131 31" fill="none" xmlns="http://www.w3.org/2000/svg">
<path d="M48.1276 6.1167H50.9865V24.5461H48.1276V22.6505C47.0511 24.1424 45.5069 24.8883 43.4951 24.8883C41.6774 24.8883 40.1245 24.2214 38.8362 22.8874C37.5479 21.5359 36.9038 19.8949 36.9038 17.9642C36.9038 16.0159 37.5479 14.3748 38.8362 13.0409C40.1245 11.7069 41.6774 11.04 43.4951 11.04C45.5069 11.04 47.0511 11.7772 48.1276 13.2515V6.1167ZM40.9539 20.9918C41.748 21.7817 42.7451 22.1766 43.9451 22.1766C45.1452 22.1766 46.1422 21.7817 46.9364 20.9918C47.7305 20.1845 48.1276 19.1752 48.1276 17.9642C48.1276 16.7531 47.7305 15.7526 46.9364 14.9628C46.1422 14.1554 45.1452 13.7517 43.9451 13.7517C42.7451 13.7517 41.748 14.1554 40.9539 14.9628C40.1598 15.7526 39.7627 16.7531 39.7627 17.9642C39.7627 19.1752 40.1598 20.1845 40.9539 20.9918Z" fill="white"/>
<path d="M63.266 11.04C65.0836 11.04 66.6366 11.7069 67.9249 13.0409C69.2131 14.3748 69.8573 16.0159 69.8573 17.9642C69.8573 19.8949 69.2131 21.5359 67.9249 22.8874C66.6366 24.2214 65.0836 24.8883 63.266 24.8883C61.2542 24.8883 59.71 24.1424 58.6335 22.6505V24.5461H55.7746V6.1167H58.6335V13.2515C59.71 11.7772 61.2542 11.04 63.266 11.04ZM59.8247 20.9918C60.6188 21.7817 61.6159 22.1766 62.8159 22.1766C64.016 22.1766 65.0131 21.7817 65.8072 20.9918C66.6013 20.1845 66.9984 19.1752 66.9984 17.9642C66.9984 16.7531 66.6013 15.7526 65.8072 14.9628C65.0131 14.1554 64.016 13.7517 62.8159 13.7517C61.6159 13.7517 60.6188 14.1554 59.8247 14.9628C59.0306 15.7526 58.6335 16.7531 58.6335 17.9642C58.6335 19.1752 59.0306 20.1845 59.8247 20.9918Z" fill="white"/>
<path d="M81.0515 12.6723H77.1073V21.2288C77.1073 21.9835 77.2484 22.5276 77.5308 22.8611C77.8132 23.1946 78.2455 23.3877 78.8279 23.4403C79.4102 23.4754 80.1514 23.4491 81.0515 23.3613V24.5461C79.2691 24.8094 77.9367 24.6865 77.0543 24.1775C76.1896 23.6685 75.7572 22.6856 75.7572 21.2288V12.6723H72.8454V11.3822H75.7572V8.09128L77.1073 7.69636V11.3822H81.0515V12.6723Z" fill="white"/>
<path d="M95.2129 11.3822H96.5364V24.5461H95.2129V22.0449C94.2599 23.9054 92.6805 24.8357 90.4746 24.8357C88.9039 24.8357 87.651 24.3618 86.7157 23.414C85.798 22.4486 85.3392 21.1674 85.3392 19.5701V11.3822H86.6892V19.5701C86.6892 20.7988 87.0245 21.7729 87.6951 22.4925C88.3833 23.2121 89.3451 23.572 90.5804 23.572C91.9393 23.572 93.0511 23.1244 93.9158 22.2292C94.7805 21.3341 95.2129 20.0353 95.2129 18.3327V11.3822Z" fill="white"/>
<path d="M108.143 11.0926C109.713 11.0926 110.958 11.5753 111.875 12.5407C112.811 13.4885 113.278 14.761 113.278 16.3582V24.5461H111.928V16.3582C111.928 15.1295 111.584 14.1554 110.896 13.4358C110.225 12.7162 109.272 12.3564 108.037 12.3564C106.678 12.3564 105.566 12.8039 104.702 13.6991C103.837 14.5942 103.404 15.893 103.404 17.5956V24.5461H102.081V11.3822H103.404V13.8834C104.357 12.0229 105.937 11.0926 108.143 11.0926Z" fill="white"/>
<path d="M124.435 11.0926C126.376 11.0926 127.946 11.7772 129.146 13.1462C130.364 14.5152 130.973 16.1388 130.973 18.0168C130.973 18.087 130.964 18.1923 130.946 18.3327C130.946 18.4732 130.946 18.5785 130.946 18.6487H118.955C119.114 20.123 119.705 21.3165 120.729 22.2292C121.77 23.1244 123.049 23.572 124.567 23.572C125.626 23.572 126.552 23.3526 127.346 22.9138C128.141 22.475 128.741 21.8958 129.146 21.1761L130.311 21.8607C129.764 22.7733 128.988 23.5017 127.982 24.0459C126.976 24.5724 125.829 24.8357 124.54 24.8357C122.511 24.8357 120.843 24.195 119.537 22.9138C118.231 21.6149 117.579 19.9651 117.579 17.9642C117.579 15.9984 118.214 14.366 119.484 13.0672C120.773 11.7508 122.423 11.0926 124.435 11.0926ZM124.435 12.3564C122.935 12.3564 121.682 12.8215 120.676 13.7517C119.67 14.682 119.096 15.8843 118.955 17.3586H129.596C129.455 15.7965 128.891 14.5767 127.902 13.6991C126.932 12.8039 125.776 12.3564 124.435 12.3564Z" fill="white"/>
<mask id="mask0_51221_5" style="mask-type:alpha" maskUnits="userSpaceOnUse" x="0" y="0" width="30" height="31">
<path d="M21.0459 6.50092C20.897 6.54507 20.7344 6.57449 20.5177 6.63335C20.45 6.29493 20.3552 5.98594 20.3146 5.66223C20.2198 4.97067 19.976 4.44097 19.3666 4.08783C18.7977 3.74941 18.6623 2.896 18.9738 2.30744C19.3395 1.6306 20.0573 1.39518 20.6938 1.74831C21.2491 2.05731 21.6283 2.92543 21.2491 3.45513C20.599 4.38211 20.8292 5.27966 21.0324 6.23607C21.0459 6.29493 21.0459 6.3685 21.0459 6.42735C21.0866 6.44207 21.073 6.45678 21.0459 6.50092Z" fill="white"/>
<path d="M12.5947 8.47258C12.4051 8.51672 12.2561 8.56086 12.053 8.60501C11.9853 8.25187 11.8905 7.92816 11.8363 7.57503C11.7415 6.92761 11.4977 6.42734 10.9289 6.08892C10.3601 5.73578 10.1975 4.97065 10.4684 4.36738C10.7393 3.76411 11.43 3.4404 11.9988 3.6464C12.5947 3.86711 12.9468 4.51452 12.8385 5.20608C12.8114 5.36793 12.7572 5.5445 12.6624 5.66221C12.2561 6.20663 12.202 6.8099 12.3916 7.47203C12.4999 7.78102 12.527 8.09002 12.5947 8.47258Z" fill="white"/>
<path d="M19.949 18.0955C19.949 17.61 20.098 17.4481 20.4907 17.61C20.721 17.713 20.9647 17.7571 21.195 17.8454C21.669 18.0514 22.1159 18.022 22.5629 17.713C23.0504 17.3893 23.6193 17.4775 24.0256 17.8601C24.4183 18.2427 24.5538 18.8165 24.3641 19.3756C24.1881 19.9054 23.836 20.1996 23.3213 20.2585C22.8067 20.3173 22.3191 20.1261 22.1159 19.5964C21.8315 18.8312 21.2898 18.5075 20.6262 18.3162C20.3959 18.2721 20.1657 18.1691 19.949 18.0955Z" fill="white"/>
<path d="M22.5628 9.16414C22.6305 8.92872 22.6847 8.78158 22.7524 8.53144C23.0775 8.64915 23.4025 8.75215 23.714 8.86986C24.2557 9.07586 24.7433 9.10529 25.2715 8.75215C25.8945 8.34016 26.6529 8.63444 26.9915 9.31128C27.3166 9.97341 27.0863 10.8268 26.4769 11.1947C25.8539 11.5625 25.0413 11.3418 24.7568 10.6355C24.486 9.94398 24.0255 9.63499 23.4025 9.45842C23.1452 9.38485 22.8743 9.28185 22.5628 9.16414Z" fill="white"/>
<path d="M16.8474 18.3898C16.9963 18.5811 17.0911 18.6988 17.213 18.8607C16.888 19.1844 16.59 19.4786 16.2785 19.7876C15.94 20.1113 15.7774 20.4939 15.7774 20.9942C15.7774 21.877 15.2357 22.4509 14.4773 22.4214C13.8272 22.4067 13.2584 21.7593 13.2854 21.0678C13.3125 20.2143 13.8949 19.6699 14.721 19.7435C15.2086 19.7876 15.6014 19.6405 15.94 19.2726C16.2244 18.9784 16.5223 18.6988 16.8474 18.3898Z" fill="white"/>
<path d="M11.0781 11.4742C11.1864 11.6067 11.2812 11.7244 11.4167 11.8862C11.1458 12.1658 10.8885 12.4306 10.6176 12.6808C10.1978 13.0486 9.98107 13.5048 9.96753 14.108C9.95398 14.932 9.35807 15.5059 8.6809 15.447C7.92247 15.3734 7.43491 14.7554 7.50262 13.9462C7.54325 13.3576 8.04436 12.7102 8.59964 12.7985C9.56122 12.9309 10.1436 12.3865 10.7395 11.7538C10.8072 11.6802 10.8749 11.6214 10.9427 11.5478C10.9697 11.5037 10.9968 11.5037 11.0781 11.4742Z" fill="white"/>
<path d="M12.5272 16.4181C12.6626 16.5653 12.7574 16.683 12.9064 16.8301C12.622 17.1244 12.3511 17.404 12.0667 17.6688C11.674 18.022 11.4844 18.4487 11.4844 19.0078C11.4708 19.8024 10.9155 20.4056 10.2519 20.3615C9.57474 20.3173 9.033 19.7288 9.04654 19.0519C9.07363 18.228 9.61537 17.6688 10.4144 17.7424C10.9426 17.7865 11.3625 17.6247 11.7417 17.2127C11.9584 16.9331 12.2293 16.6977 12.5272 16.4181Z" fill="white"/>
<path d="M20.7344 9.59086C20.0843 9.35543 19.7187 8.56088 19.9218 7.8399C20.1385 7.11891 20.9105 6.70692 21.5606 6.95706C22.2107 7.20719 22.5628 8.01646 22.3461 8.72273C22.1294 9.429 21.3981 9.82628 20.7344 9.59086Z" fill="white"/>
<path d="M22.5629 12.2835C23.2401 12.5189 23.5922 13.2841 23.3755 14.0198C23.1588 14.7555 22.4546 15.138 21.7774 14.9026C21.1138 14.6672 20.7345 13.8873 20.9512 13.1664C21.1815 12.4454 21.8993 12.0481 22.5629 12.2835Z" fill="white"/>
<path d="M28.696 0.0678388C29.3731 0.303262 29.7253 1.06839 29.5086 1.80409C29.2919 2.53979 28.5876 2.92235 27.9105 2.68692C27.2468 2.4515 26.8676 1.67166 27.0843 0.950677C27.3146 0.229692 28.0323 -0.167585 28.696 0.0678388Z" fill="white"/>
<path d="M15.1545 6.13309C15.3712 5.4121 16.089 5.01482 16.7526 5.25025C17.4163 5.48567 17.7684 6.26551 17.5517 7.00121C17.335 7.73691 16.6172 8.11947 15.9536 7.88405C15.2899 7.63391 14.9378 6.85407 15.1545 6.13309Z" fill="white"/>
<path d="M18.0799 18.5369C17.4028 18.3015 17.0371 17.5364 17.2402 16.8154C17.4569 16.1091 18.2018 15.6971 18.8519 15.9326C19.4885 16.168 19.8541 16.9331 19.6645 17.6247C19.4614 18.3604 18.7571 18.7576 18.0799 18.5369Z" fill="white"/>
<path d="M13.0282 8.97286C13.7054 9.20828 14.0575 9.91455 13.8544 10.6355C13.6377 11.4007 12.974 11.7832 12.2969 11.5478C11.6197 11.3124 11.2676 10.6061 11.4707 9.88512C11.6739 9.13471 12.3375 8.73744 13.0282 8.97286Z" fill="white"/>
<path d="M6.62208 9.57615C6.73043 9.70858 6.82523 9.82629 6.96067 9.98814C6.6898 10.2677 6.43247 10.5326 6.1616 10.7827C5.74176 11.1505 5.52506 11.6067 5.51152 12.21C5.49798 13.0339 4.90206 13.6078 4.22489 13.5489C3.46646 13.4754 2.9789 12.8574 3.04662 12.0481C3.08725 11.4595 3.58835 10.8121 4.14363 10.9004C5.10522 11.0328 5.68758 10.4884 6.28349 9.85572C6.35121 9.78215 6.41893 9.72329 6.48665 9.64972C6.50019 9.62029 6.54082 9.60558 6.62208 9.57615Z" fill="white"/>
<path d="M8.3557 7.28076C9.03287 7.51618 9.385 8.22245 9.18185 8.94344C8.96515 9.70857 8.30153 10.0911 7.62436 9.85571C6.94718 9.62028 6.59505 8.91401 6.79821 8.19303C6.98781 7.44261 7.66499 7.04533 8.3557 7.28076Z" fill="white"/>
<path d="M18.4322 23.8487C18.5405 23.9811 18.6353 24.0988 18.7708 24.2607C18.4999 24.5402 18.2426 24.8051 17.9717 25.0552C17.5518 25.4231 17.3352 25.8792 17.3216 26.4825C17.3081 27.3064 16.7122 27.8803 16.035 27.8214C15.2766 27.7479 14.789 27.1299 14.8567 26.3206C14.8973 25.7321 15.3984 25.0846 15.9537 25.1729C16.9153 25.3053 17.4977 24.7609 18.0936 24.1282C18.1613 24.0547 18.229 23.9958 18.2967 23.9222C18.3103 23.8781 18.3509 23.8781 18.4322 23.8487Z" fill="white"/>
<path d="M20.1656 21.5533C20.8428 21.7888 21.1949 22.495 20.9918 23.216C20.7751 23.9811 20.1114 24.3637 19.4343 24.1283C18.7571 23.8929 18.405 23.1866 18.6081 22.4656C18.8113 21.7005 19.4749 21.3179 20.1656 21.5533Z" fill="white"/>
<path d="M19.1599 28.3247C19.8506 28.4718 20.284 29.1339 20.1621 29.8696C20.0402 30.6495 19.4172 31.1203 18.7129 30.9732C18.0222 30.826 17.5888 30.1639 17.7107 29.4282C17.8191 28.6631 18.4556 28.1775 19.1599 28.3247Z" fill="white"/>
<path d="M11.9527 22.6082C12.6435 22.7554 13.0769 23.4175 12.955 24.1532C12.8331 24.933 12.2101 25.4039 11.5058 25.2567C10.8151 25.1096 10.3817 24.4475 10.5036 23.7118C10.6119 22.9466 11.2485 22.4611 11.9527 22.6082Z" fill="white"/>
<path d="M13.2632 28.3247C13.9539 28.4718 14.3873 29.1339 14.2654 29.8696C14.1435 30.6495 13.5205 31.1203 12.8162 30.9732C12.1255 30.826 11.6921 30.1639 11.814 29.4282C11.9224 28.6631 12.5589 28.1775 13.2632 28.3247Z" fill="white"/>
<path d="M6.05598 15.4627C6.74669 15.6098 7.18008 16.2719 7.05819 17.0076C6.9363 17.7875 6.3133 18.2583 5.60904 18.1112C4.91833 17.964 4.48494 17.3019 4.60683 16.5662C4.71518 15.8011 5.35172 15.3155 6.05598 15.4627Z" fill="white"/>
<path d="M1.46963 14.3908C2.16034 14.538 2.59373 15.2001 2.47184 15.9358C2.34995 16.7157 1.72695 17.1865 1.0227 17.0394C0.33198 16.8922 -0.101411 16.2301 0.0204798 15.4944C0.128827 14.7293 0.765371 14.2437 1.46963 14.3908Z" fill="white"/>
<path d="M1.79726 7.60315C2.48798 7.75029 2.92137 8.41242 2.79948 9.14812C2.67759 9.92796 2.05459 10.3988 1.35033 10.2517C0.659615 10.1045 0.226225 9.4424 0.348116 8.7067C0.470007 7.92686 1.093 7.45601 1.79726 7.60315Z" fill="white"/>
<path d="M13.5971 16.6683C12.9335 16.4328 12.5678 15.6971 12.771 14.9909C12.9741 14.2699 13.6919 13.8726 14.3691 14.1228C15.0327 14.3582 15.3713 15.0939 15.1546 15.8149C14.9379 16.5358 14.2608 16.9037 13.5971 16.6683Z" fill="white"/>
<path d="M26.2602 2.6753C26.3956 2.82244 26.4904 2.94015 26.6394 3.08729C26.355 3.38157 26.0841 3.66114 25.7997 3.92599C25.4069 4.27912 25.2173 4.70583 25.2173 5.26496C25.2038 6.05951 24.6485 6.66279 23.9849 6.61864C23.3077 6.5745 22.766 5.98594 22.7795 5.3091C22.8066 4.48512 23.3483 3.92599 24.1474 3.99956C24.6756 4.0437 25.0954 3.88185 25.4746 3.46985C25.6913 3.19029 25.9622 2.95487 26.2602 2.6753Z" fill="white"/>
<path d="M20.0981 9.69386L19.7189 9.23773L18.5406 10.4001C18.4729 10.4443 18.3374 10.5473 18.1885 10.4884C18.0937 10.459 17.9582 10.4148 17.8228 10.3854C17.7551 10.356 17.6738 10.3413 17.5926 10.3266C17.3352 10.2971 17.0914 10.3413 16.8748 10.4443C16.8612 10.4443 16.8341 10.459 16.8206 10.4737C16.6987 10.5473 16.6039 10.6208 16.5091 10.7238C16.4143 10.8121 16.3195 10.9004 16.2653 10.9593C16.1163 11.1211 15.8725 11.0328 15.8725 11.0328L14.3421 10.5031L14.1661 11.0917L15.859 11.6802C15.9132 11.7244 15.9809 11.7685 16.008 11.8568C16.0892 12.0628 16.2653 12.4895 16.3736 12.6072C16.4007 12.6514 16.4414 12.6955 16.482 12.7397C16.5497 12.8132 16.6174 12.8868 16.6987 12.9456C16.807 13.0192 16.9154 13.0781 17.0373 13.1222C17.0914 13.1516 17.1456 13.1664 17.1863 13.1958C17.3352 13.2546 17.3894 13.4165 17.4029 13.5048C17.4165 13.5342 17.4165 13.5489 17.4165 13.5489L17.8363 15.55L18.3916 15.4176L17.9582 13.3576C17.9582 13.2694 17.9718 13.1664 18.053 13.0781C18.0666 13.0634 18.0801 13.0486 18.0937 13.0192C18.4052 12.8279 18.6354 12.5189 18.7302 12.1364C18.7437 12.0775 18.7573 12.0334 18.7573 11.9745C18.7979 11.798 18.7844 11.3565 18.7708 11.1505C18.7708 11.077 18.7844 11.0034 18.8115 10.9445L20.0981 9.69386Z" fill="white"/>
</mask>
<g mask="url(#mask0_51221_5)">
<path d="M31.2091 -0.919922H-1.06128V31.9738H31.2091V-0.919922Z" fill="white"/>
</g>
</svg>
